<svg width="40" height="40" viewBox="0 0 40 40" fill="none" xmlns="http://www.w3.org/2000/svg">
<circle cx="20" cy="20" r="20" fill="#FF607C"/>
<path d="M11.5 19.75C11.5 23.8376 13.75 26.5001 19.75 26.5C22.2618 26.5 28 26.5001 28 26.5001C28 26.5001 28 22.377 28 20.5C28 15.6301 24.3946 13 19.75 13C15.1054 13 11.5 15.25 11.5 19.75Z" fill="white"/>
<path d="M15.9999 19.75C15.9999 20.1642 16.3357 20.5 16.7499 20.5C17.1641 20.5 17.4999 20.1642 17.4999 19.75C17.4999 19.3358 17.1641 19 16.7499 19C16.3357 19 15.9999 19.3358 15.9999 19.75Z" fill="#FF607C"/>
<path d="M19 19.75C19 20.1642 19.3357 20.5 19.75 20.5C20.1642 20.5 20.5 20.1642 20.5 19.75C20.5 19.3358 20.1642 19 19.75 19C19.3357 19 19 19.3358 19 19.75Z" fill="#FF607C"/>
<path d="M22 19.75C22 20.1642 22.3358 20.5 22.75 20.5C23.1642 20.5 23.5 20.1642 23.5 19.75C23.5 19.3358 23.1642 19 22.75 19C22.3358 19 22 19.3358 22 19.75Z" fill="#FF607C"/>
</svg>
