<svg width="17" height="25" viewBox="0 0 17 25" fill="none" xmlns="http://www.w3.org/2000/svg">
<path d="M15.4528 12.0229C15.0762 12.0229 14.771 12.3282 14.771 12.7047C14.771 14.2775 14.0403 15.8259 12.7664 16.9526C11.5747 18.0067 10.0076 18.6113 8.467 18.6113H8.16748C6.62695 18.6113 5.05987 18.0068 3.86813 16.9526C2.59413 15.8259 1.86354 14.2776 1.86354 12.7047C1.86354 12.3282 1.55838 12.0229 1.18177 12.0229C0.805161 12.0229 0.5 12.3282 0.5 12.7047C0.5 14.668 1.39839 16.5886 2.96474 17.974C4.26592 19.125 5.94308 19.8296 7.63542 19.9532V23.1364H4.46891C4.0923 23.1364 3.78714 23.4416 3.78714 23.8181C3.78714 24.1947 4.0923 24.4999 4.46891 24.4999H12.1654C12.542 24.4999 12.8472 24.1947 12.8472 23.8181C12.8472 23.4416 12.542 23.1364 12.1654 23.1364H8.99906V19.9532C10.6914 19.8295 12.3686 19.1249 13.6698 17.974C15.2363 16.5885 16.1346 14.668 16.1346 12.7047C16.1346 12.3282 15.8293 12.0229 15.4528 12.0229Z" fill="#212123"/>
<path d="M8.17291 17.3114H8.46198C11.191 17.3114 13.585 15.0966 13.585 12.5717V5.23949C13.5849 2.71476 11.191 0.5 8.46189 0.5H8.17282C5.44373 0.5 3.0498 2.71476 3.0498 5.23949V12.5717C3.0498 15.0965 5.44373 17.3114 8.17291 17.3114ZM4.41335 5.23949C4.41335 3.47262 6.20532 1.86354 8.17291 1.86354H8.46198C10.4296 1.86354 12.2214 3.47262 12.2214 5.23949V12.5717C12.2214 14.3387 10.4296 15.9479 8.46198 15.9479H8.17291C6.20541 15.9479 4.41344 14.3387 4.41344 12.5717L4.41335 5.23949Z" fill="#212123"/>
</svg>
