<svg width="17" height="14" viewBox="0 0 17 14" fill="none" xmlns="http://www.w3.org/2000/svg">
<path d="M0 6.75C0 10.8376 2.25 13.5001 8.25 13.5C10.7618 13.5 16.5 13.5001 16.5 13.5001C16.5 13.5001 16.5 9.37705 16.5 7.5C16.5 2.63006 12.8946 0 8.25 0C3.60536 0 0 2.25 0 6.75Z" fill="white"/>
<path d="M4.4999 6.75001C4.4999 7.16422 4.83568 7.50001 5.2499 7.50001C5.66411 7.50001 5.9999 7.16422 5.9999 6.75001C5.9999 6.3358 5.66411 6.00001 5.2499 6.00001C4.83568 6.00001 4.4999 6.3358 4.4999 6.75001Z" fill="#FF607C"/>
<path d="M7.49996 6.75001C7.49996 7.16422 7.83574 7.50001 8.24996 7.50001C8.66417 7.50001 8.99996 7.16422 8.99996 6.75001C8.99996 6.3358 8.66417 6.00001 8.24996 6.00001C7.83574 6.00001 7.49996 6.3358 7.49996 6.75001Z" fill="#FF607C"/>
<path d="M10.5 6.75001C10.5 7.16422 10.8358 7.50001 11.25 7.50001C11.6642 7.50001 12 7.16422 12 6.75001C12 6.3358 11.6642 6.00001 11.25 6.00001C10.8358 6.00001 10.5 6.3358 10.5 6.75001Z" fill="#FF607C"/>
</svg>
