<svg width="40" height="40" viewBox="0 0 40 40" fill="none" xmlns="http://www.w3.org/2000/svg">
<circle cx="20" cy="20" r="20" fill="#FF607C"/>
<path fill-rule="evenodd" clip-rule="evenodd" d="M18.4023 9.50105L13.5637 14.3397C12.8956 15.0078 12.8956 16.0909 13.5637 16.759C14.2318 17.4271 15.3149 17.4272 15.983 16.7591C15.3149 17.4272 15.315 18.5103 15.9831 19.1784C16.6466 19.8419 17.7194 19.8465 18.3886 19.1921L13.9481 23.6326L12.8239 24.7568L11.5289 26.052L13.2766 24.3041L11.9814 25.5993L10.8572 26.7234L10.2096 27.371C9.54157 28.0391 9.54156 29.1222 10.2096 29.7903V29.7903V29.7903C10.8777 30.4584 11.9609 30.4584 12.629 29.7903L13.2765 29.1428L14.4007 28.0186L15.6959 26.7234L13.9482 28.4713L15.2433 27.1761L16.3675 26.052L20.8186 21.6009C20.1536 22.2692 20.1546 23.35 20.8216 24.0171C21.4873 24.6827 22.5649 24.6852 23.2336 24.0244C22.5727 24.6931 22.5752 25.7708 23.2408 26.4364C23.9089 27.1045 24.9922 27.1045 25.6603 26.4364L30.4989 21.5977C31.167 20.9296 31.167 19.8465 30.4989 19.1784C29.8333 18.5127 28.7553 18.5104 28.0867 19.1712C28.7476 18.5026 28.7452 17.4248 28.0796 16.7591C27.4115 16.091 26.3284 16.091 25.6603 16.7591L24.4506 15.5494L24.447 15.5501L23.2392 14.3423L23.241 14.3398C23.9091 13.6717 23.9091 12.5885 23.241 11.9205C22.5729 11.2524 21.4897 11.2523 20.8217 11.9204C21.4897 11.2523 21.4896 10.1692 20.8216 9.5011C20.1535 8.833 19.0704 8.83295 18.4023 9.50105Z" fill="white"/>
</svg>
