<svg width="28" height="28" viewBox="0 0 28 28" fill="none" xmlns="http://www.w3.org/2000/svg">
<rect x="19.259" y="5.69849" width="3.52963" height="20.1778" rx="1.76481" transform="rotate(45 19.259 5.69849)" fill="white"/>
<mask id="mask0_361_5901" style="mask-type:alpha" maskUnits="userSpaceOnUse" x="5" y="6" width="17" height="16">
<rect x="19.259" y="5.69849" width="3.52963" height="20.1778" rx="1.76481" transform="rotate(45 19.259 5.69849)" fill="#FFDD33"/>
</mask>
<g mask="url(#mask0_361_5901)">
<rect x="19.259" y="5.69849" width="1.76481" height="20.1778" transform="rotate(45 19.259 5.69849)" fill="white"/>
</g>
<rect x="22.4622" y="7.4873" width="3.52963" height="9.86217" rx="1.76481" transform="rotate(45 22.4622 7.4873)" fill="white"/>
<mask id="mask1_361_5901" style="mask-type:alpha" maskUnits="userSpaceOnUse" x="16" y="8" width="9" height="9">
<path d="M21.0674 8.88203C21.8377 8.11174 23.0209 8.04601 23.7101 8.73522V8.73522C24.3993 9.42442 24.3335 10.6076 23.5633 11.3779L19.3791 15.562C18.6088 16.3323 17.4257 16.398 16.7365 15.7088V15.7088C16.0473 15.0196 16.113 13.8365 16.8833 13.0662L21.0674 8.88203Z" fill="#FF4D88"/>
</mask>
<g mask="url(#mask1_361_5901)">
<path d="M23.71 8.73511L24.9579 9.98302L17.9843 16.9566L16.7364 15.7087L23.71 8.73511Z" fill="white"/>
</g>
<rect x="14.9749" width="3.52963" height="9.86217" rx="1.76481" transform="rotate(45 14.9749 0)" fill="white"/>
<mask id="mask2_361_5901" style="mask-type:alpha" maskUnits="userSpaceOnUse" x="8" y="0" width="9" height="9">
<path d="M13.5801 1.39472C14.3504 0.624438 15.5336 0.558709 16.2228 1.24791V1.24791C16.912 1.93712 16.8462 3.12026 16.076 3.89055L11.8918 8.07471C11.1215 8.845 9.93836 8.91072 9.24916 8.22152V8.22152C8.55995 7.53232 8.62568 6.34917 9.39597 5.57889L13.5801 1.39472Z" fill="#FF4D88"/>
</mask>
<g mask="url(#mask2_361_5901)">
<path d="M16.2227 1.2478L17.4706 2.49572L10.497 9.46932L9.24905 8.22141L16.2227 1.2478Z" fill="white"/>
</g>
<rect x="24.958" y="9.98315" width="3.52963" height="9.86217" rx="1.76481" transform="rotate(45 24.958 9.98315)" fill="white"/>
<mask id="mask3_361_5901" style="mask-type:alpha" maskUnits="userSpaceOnUse" x="18" y="10" width="9" height="9">
<path d="M23.5633 11.3779C24.3336 10.6076 25.5167 10.5419 26.2059 11.2311V11.2311C26.8951 11.9203 26.8294 13.1034 26.0591 13.8737L21.8749 18.0579C21.1047 18.8281 19.9215 18.8939 19.2323 18.2047V18.2047C18.5431 17.5155 18.6088 16.3323 19.3791 15.562L23.5633 11.3779Z" fill="#FF4D88"/>
</mask>
<g mask="url(#mask3_361_5901)">
<path d="M26.2061 11.2312L27.454 12.4791L20.4804 19.4527L19.2324 18.2048L26.2061 11.2312Z" fill="white"/>
</g>
<rect x="17.4705" y="2.49561" width="3.52963" height="9.86217" rx="1.76481" transform="rotate(45 17.4705 2.49561)" fill="white"/>
<mask id="mask4_361_5901" style="mask-type:alpha" maskUnits="userSpaceOnUse" x="11" y="3" width="9" height="9">
<path d="M16.0757 3.89033C16.846 3.12004 18.0292 3.05431 18.7184 3.74352V3.74352C19.4076 4.43272 19.3418 5.61587 18.5716 6.38615L14.3874 10.5703C13.6171 11.3406 12.434 11.4063 11.7448 10.7171V10.7171C11.0556 10.0279 11.1213 8.84478 11.8916 8.07449L16.0757 3.89033Z" fill="#FF4D88"/>
</mask>
<g mask="url(#mask4_361_5901)">
<path d="M18.7183 3.74341L19.9662 4.99132L12.9926 11.9649L11.7447 10.717L18.7183 3.74341Z" fill="white"/>
</g>
</svg>
