<svg width="21" height="21" viewBox="0 0 21 21" fill="none" xmlns="http://www.w3.org/2000/svg">
<path d="M10.3504 10.1158C11.7401 10.1158 12.9433 9.61734 13.9267 8.63393C14.9098 7.65068 15.4084 6.44761 15.4084 5.05773C15.4084 3.66833 14.91 2.4651 13.9266 1.48153C12.9432 0.498435 11.7399 0 10.3504 0C8.96047 0 7.7574 0.498435 6.77415 1.48169C5.79089 2.46494 5.2923 3.66817 5.2923 5.05773C5.2923 6.44761 5.79089 7.65084 6.77415 8.63409C7.75772 9.61718 8.96095 10.1158 10.3504 10.1158ZM7.64445 2.35182C8.39891 1.59736 9.28395 1.23063 10.3504 1.23063C11.4166 1.23063 12.3018 1.59736 13.0564 2.35182C13.8109 3.10645 14.1778 3.99165 14.1778 5.05773C14.1778 6.12413 13.8109 7.00917 13.0564 7.76379C12.3018 8.51842 11.4166 8.88515 10.3504 8.88515C9.28427 8.88515 8.39923 8.51826 7.64445 7.76379C6.88982 7.00933 6.52293 6.12413 6.52293 5.05773C6.52293 3.99165 6.88982 3.10645 7.64445 2.35182Z" fill="current"/>
<path d="M19.2006 16.1479C19.1722 15.7387 19.1149 15.2924 19.0304 14.821C18.9452 14.3461 18.8355 13.8972 18.7041 13.4869C18.5682 13.0628 18.3838 12.644 18.1555 12.2426C17.9189 11.8261 17.6407 11.4633 17.3286 11.1649C17.0023 10.8526 16.6027 10.6015 16.1406 10.4184C15.6801 10.2362 15.1699 10.144 14.624 10.144C14.4096 10.144 14.2023 10.2319 13.8019 10.4926C13.5555 10.6533 13.2673 10.8391 12.9456 11.0447C12.6705 11.22 12.2978 11.3842 11.8375 11.5329C11.3884 11.6782 10.9324 11.7519 10.4822 11.7519C10.0323 11.7519 9.57635 11.6782 9.12694 11.5329C8.66711 11.3844 8.29429 11.2201 8.01968 11.0449C7.701 10.8412 7.41261 10.6554 7.16251 10.4924C6.76245 10.2318 6.55513 10.1438 6.34076 10.1438C5.79474 10.1438 5.28461 10.2362 4.8243 10.4186C4.36256 10.6014 3.96281 10.8524 3.63613 11.165C3.32403 11.4637 3.04589 11.8262 2.80941 12.2426C2.58142 12.644 2.39685 13.0626 2.26099 13.487C2.12977 13.8974 2.02002 14.3461 1.93478 14.821C1.85019 15.2917 1.79299 15.7383 1.76463 16.1484C1.73676 16.5494 1.72266 16.9668 1.72266 17.3885C1.72266 18.4847 2.07113 19.3721 2.7583 20.0266C3.43698 20.6725 4.33484 20.9999 5.42704 20.9999H15.5387C16.6306 20.9999 17.5284 20.6725 18.2073 20.0266C18.8946 19.3726 19.2431 18.4849 19.2431 17.3883C19.2429 16.9652 19.2286 16.5478 19.2006 16.1479ZM17.3587 19.135C16.9103 19.5618 16.3149 19.7693 15.5385 19.7693H5.42704C4.65047 19.7693 4.0551 19.5618 3.60681 19.1352C3.16702 18.7165 2.95329 18.145 2.95329 17.3885C2.95329 16.995 2.96626 16.6065 2.99222 16.2335C3.01753 15.8676 3.06928 15.4656 3.14603 15.0384C3.22181 14.6166 3.31826 14.2207 3.43298 13.8623C3.54305 13.5186 3.69317 13.1783 3.87934 12.8505C4.05702 12.5381 4.26146 12.27 4.48705 12.0541C4.69805 11.852 4.96401 11.6867 5.2774 11.5627C5.56723 11.448 5.89295 11.3852 6.24655 11.3757C6.28965 11.3986 6.36639 11.4424 6.49072 11.5234C6.74371 11.6883 7.0353 11.8764 7.35766 12.0823C7.72103 12.3139 8.18919 12.5232 8.7485 12.7037C9.32032 12.8886 9.90351 12.9825 10.4824 12.9825C11.0612 12.9825 11.6446 12.8886 12.2161 12.7039C12.7759 12.523 13.2439 12.3139 13.6077 12.0819C13.9376 11.8711 14.221 11.6885 14.474 11.5234C14.5984 11.4425 14.6751 11.3986 14.7182 11.3757C15.072 11.3852 15.3977 11.448 15.6877 11.5627C16.0009 11.6867 16.2669 11.8522 16.4779 12.0541C16.7035 12.2699 16.9079 12.5379 17.0856 12.8507C17.2719 13.1783 17.4222 13.5188 17.5321 13.8621C17.647 14.221 17.7436 14.6167 17.8192 15.0383C17.8958 15.4662 17.9477 15.8684 17.973 16.2336V16.234C17.9991 16.6055 18.0123 16.9939 18.0124 17.3885C18.0123 18.1452 17.7985 18.7165 17.3587 19.135Z" fill="current"/>
</svg>
