<svg width="11" height="9" viewBox="0 0 11 9" fill="none" xmlns="http://www.w3.org/2000/svg">
<path d="M0.5 4.49988C0.5 5.77203 0.84774 6.73974 1.58375 7.39951C2.33046 8.06888 3.56315 8.49992 5.49999 8.49988L8.87796 8.49992L10.3761 8.49995L10.5 8.49996V8.49772V8.4909V8.48405V8.47715V8.47022V8.46326V8.45626V8.44922V8.44214V8.43504V8.42789V8.42071V8.4135V8.40625V8.39896V8.39164V8.38429V8.3769V8.36948V8.36203V8.35454V8.34702V8.33946V8.33188V8.32426V8.3166V8.30892V8.3012V8.29345V8.28567V8.27786V8.27001V8.26214V8.25423V8.24629V8.23833V8.23033V8.2223V8.21424V8.20615V8.19804V8.18989V8.18171V8.17351V8.16527V8.15701V8.14871V8.14039V8.13204V8.12367V8.11526V8.10683V8.09837V8.08988V8.08137V8.07283V8.06426V8.05567V8.04705V8.0384V8.02973V8.02103V8.01231V8.00356V7.99479V7.98599V7.97716V7.96832V7.95944V7.95055V7.94163V7.93268V7.92371V7.91472V7.90571V7.89667V7.88761V7.87852V7.86942V7.86029V7.85114V7.84197V7.83277V7.82356V7.81432V7.80506V7.79579V7.78649V7.77717V7.76782V7.75846V7.74908V7.73968V7.73026V7.72082V7.71136V7.70188V7.69239V7.68287V7.67334V7.66379V7.65421V7.64463V7.63502V7.6254V7.61576V7.6061V7.59642V7.58673V7.57702V7.5673V7.55755V7.5478V7.53802V7.52823V7.51843V7.50861V7.49878V7.48893V7.47906V7.46918V7.45929V7.44938V7.43946V7.42953V7.41958V7.40962V7.39964V7.38965V7.37965V7.36964V7.35961V7.34958V7.33953V7.32946V7.31939V7.30931V7.29921V7.2891V7.27898V7.26885V7.25871V7.24856V7.2384V7.22823V7.21805V7.20786V7.19767V7.18746V7.17724V7.16702V7.15678V7.14654V7.13629V7.12603V7.11576V7.10549V7.0952V7.08491V7.07462V7.06431V7.054V7.04369V7.03336V7.02303V7.0127V7.00236V6.99201V6.98166V6.9713V6.96094V6.95057V6.9402V6.92982V6.91944V6.90906V6.89867V6.88828V6.87788V6.86748V6.85708V6.84668V6.83627V6.82586V6.81545V6.80503V6.79462V6.7842V6.77378V6.76336V6.75293V6.74251V6.73208V6.72166V6.71123V6.70081V6.69038V6.67995V6.66953V6.6591V6.64868V6.63826V6.62783V6.61741V6.60699V6.59657V6.58616V6.57574V6.56533V6.55492V6.54451V6.53411V6.52371V6.51331V6.50291V6.49252V6.48213V6.47175V6.46137V6.45099V6.44062V6.43025V6.41989V6.40954V6.39918V6.38884V6.3785V6.36816V6.35783V6.34751V6.3372V6.32689V6.31658V6.30629V6.296V6.28572V6.27544V6.26518V6.25492V6.24467V6.23443V6.22419V6.21397V6.20375V6.19355V6.18335V6.17316V6.16298V6.15281V6.14265V6.1325V6.12236V6.11224V6.10212V6.09201V6.08192V6.07183V6.06176V6.0517V6.04165V6.03162V6.02159V6.01158V6.00158V5.99159V5.98162V5.97166V5.96171V5.95178V5.94186V5.93195V5.92206V5.91218V5.90232V5.89247V5.88264V5.87282V5.86302V5.85323V5.84346V5.83371V5.82397V5.81424V5.80454V5.79485V5.78517V5.77552V5.76588V5.75625V5.74665V5.73706V5.72749V5.71794V5.70841V5.6989V5.6894V5.67993V5.67047V5.66103V5.65161V5.64222V5.63284V5.62348V5.61414V5.60482V5.59552V5.58625V5.57699V5.56776V5.55854V5.54935V5.54018V5.53104V5.52191V5.51281V5.50373V5.49467V5.48563V5.47662V5.46763V5.45866V5.44972V5.4408V5.43191V5.42304V5.4142V5.40537V5.39658V5.38781V5.37906V5.37034V5.36165V5.35298V5.34433V5.33571V5.32712V5.31856V5.31002V5.30151V5.29303V5.28457V5.27614V5.26774V5.25937V5.25102V5.2427V5.23441V5.22615V5.21792V5.20972V5.20154V5.1934V5.18528V5.1772V5.16914V5.16112V5.15312V5.14516V5.13723V5.12932V5.12145V5.11361V5.1058V5.09802V5.09028V5.08256V5.07488V5.06723V5.05962V5.05203V5.04448V5.03696V5.02948V5.02203V5.01461V5.00723V4.99988C10.5 3.51034 9.95399 2.4039 9.08635 1.66252C8.20881 0.912689 6.95815 0.499878 5.5 0.499878C4.02467 0.499878 2.7671 0.858155 1.89117 1.52312C1.03237 2.17507 0.5 3.15034 0.5 4.49988Z" stroke="#ABAEB4" stroke-linecap="round" stroke-linejoin="round"/>
<circle cx="0.5" cy="0.5" r="0.5" transform="matrix(-1 0 0 1 4 3.99988)" fill="#ABAEB4"/>
<circle cx="0.5" cy="0.5" r="0.5" transform="matrix(-1 0 0 1 6 3.99988)" fill="#ABAEB4"/>
<circle cx="0.5" cy="0.5" r="0.5" transform="matrix(-1 0 0 1 8 3.99988)" fill="#ABAEB4"/>
</svg>
