<svg width="16" height="17" viewBox="0 0 16 17" fill="none" xmlns="http://www.w3.org/2000/svg">
<g clip-path="url(#clip0_682_7772)">
<path d="M13.9555 0.5H2.04453C0.917156 0.5 0 1.41719 0 2.54456V14.4555C0 15.5828 0.917156 16.5 2.04453 16.5H13.9555C15.0828 16.5 16 15.5828 16 14.4554V2.54456C16 1.41719 15.0828 0.5 13.9555 0.5ZM15.0576 14.4555C15.0576 15.0632 14.5632 15.5576 13.9555 15.5576H2.04453C1.43681 15.5576 0.942406 15.0632 0.942406 14.4555V12.7365L4.04413 10.0974C4.15731 10.0011 4.32244 10.0002 4.43669 10.0951L6.37962 11.7084C6.56697 11.864 6.84197 11.8512 7.01412 11.6789L11.6307 7.05531C11.7141 6.97172 11.8114 6.96359 11.8622 6.96619C11.9128 6.96878 12.0089 6.98684 12.0833 7.07856L15.0576 10.7408L15.0576 14.4555ZM15.0576 9.24578L12.8149 6.48434C12.5925 6.21047 12.2628 6.04303 11.9104 6.02494C11.5583 6.00713 11.213 6.13969 10.9637 6.38938L6.651 10.7088L5.03881 9.37006C4.57134 8.98188 3.89622 8.98591 3.43341 9.37969L0.942406 11.4991V2.54456C0.942406 1.93684 1.43681 1.44244 2.04453 1.44244H13.9555C14.5632 1.44244 15.0576 1.93684 15.0576 2.54456V9.24578Z" fill="black"/>
<path d="M5.03693 2.46851C3.78396 2.46851 2.76465 3.48788 2.76465 4.74079C2.76465 5.99372 3.78399 7.01307 5.03693 7.01307C6.28987 7.01307 7.30921 5.99372 7.30921 4.74079C7.30921 3.48785 6.2899 2.46851 5.03693 2.46851ZM5.03693 6.07066C4.30362 6.07066 3.70705 5.47407 3.70705 4.74079C3.70705 4.00747 4.30362 3.41091 5.03693 3.41091C5.77024 3.41091 6.3668 4.00751 6.3668 4.74079C6.3668 5.47407 5.77024 6.07066 5.03693 6.07066Z" fill="black"/>
</g>
<defs>
<clipPath id="clip0_682_7772">
<rect width="16" height="16" fill="white" transform="translate(0 0.5)"/>
</clipPath>
</defs>
</svg>
