<svg width="30" height="30" viewBox="0 0 30 30" fill="none" xmlns="http://www.w3.org/2000/svg">
<circle cx="15" cy="15" r="15" fill="#FF607C"/>
<path fill-rule="evenodd" clip-rule="evenodd" d="M8.20145 15.1079C8.20145 14.6609 8.56381 14.2985 9.0108 14.2985H21.205C21.652 14.2985 22.0144 14.6609 22.0144 15.1079C22.0144 15.5549 21.652 15.9172 21.205 15.9172H9.0108C8.56381 15.9172 8.20145 15.5549 8.20145 15.1079Z" fill="white"/>
<path fill-rule="evenodd" clip-rule="evenodd" d="M15.1079 8.20142C15.5549 8.20142 15.9173 8.56378 15.9173 9.01077L15.9173 21.205C15.9173 21.652 15.5549 22.0144 15.1079 22.0144C14.6609 22.0144 14.2986 21.652 14.2986 21.205L14.2986 9.01077C14.2986 8.56378 14.6609 8.20142 15.1079 8.20142Z" fill="white"/>
</svg>
