<svg width="21" height="21" viewBox="0 0 21 21" fill="none" xmlns="http://www.w3.org/2000/svg">
<path d="M20.475 9.09299C20.4744 9.09251 20.4739 9.09187 20.4734 9.09139L11.907 0.525354C11.5419 0.160057 11.0564 -0.0410156 10.5401 -0.0410156C10.0237 -0.0410156 9.53822 0.160057 9.17293 0.525354L0.611061 9.08706C0.608177 9.08995 0.605133 9.09299 0.602409 9.09587C-0.147409 9.85002 -0.146127 11.0736 0.606094 11.8258C0.949761 12.1696 1.4035 12.3686 1.8888 12.3896C1.90866 12.3916 1.92853 12.3925 1.94856 12.3925H2.28982V18.6964C2.28982 19.944 3.30496 20.959 4.55257 20.959H7.90401C8.24383 20.959 8.51924 20.6835 8.51924 20.3438V15.4014C8.51924 14.8321 8.98243 14.3691 9.55168 14.3691H11.5284C12.0977 14.3691 12.5607 14.8321 12.5607 15.4014V20.3438C12.5607 20.6835 12.8361 20.959 13.176 20.959H16.5274C17.7752 20.959 18.7901 19.944 18.7901 18.6964V12.3925H19.1067C19.623 12.3925 20.1084 12.1914 20.4739 11.826C21.2269 11.0726 21.2272 9.84681 20.475 9.09299ZM19.6037 10.956C19.4709 11.0888 19.2944 11.162 19.1067 11.162H18.1749C17.8351 11.162 17.5597 11.4375 17.5597 11.7773V18.6964C17.5597 19.2655 17.0966 19.7286 16.5274 19.7286H13.7912V15.4014C13.7912 14.1538 12.7762 13.1386 11.5284 13.1386H9.55168C8.30391 13.1386 7.28877 14.1538 7.28877 15.4014V19.7286H4.55257C3.98348 19.7286 3.52029 19.2655 3.52029 18.6964V11.7773C3.52029 11.4375 3.24488 11.162 2.90506 11.162H1.98925C1.97964 11.1614 1.97019 11.1609 1.96041 11.1608C1.77712 11.1576 1.60521 11.0848 1.4764 10.9558C1.20242 10.6819 1.20242 10.236 1.4764 9.96185C1.47656 9.96185 1.47656 9.96169 1.47672 9.96153L1.4772 9.96105L10.0432 1.39534C10.1759 1.26251 10.3523 1.18946 10.5401 1.18946C10.7277 1.18946 10.9041 1.26251 11.0369 1.39534L19.601 9.95929C19.6023 9.96057 19.6037 9.96185 19.605 9.96313C19.8775 10.2376 19.8771 10.6825 19.6037 10.956Z" fill="#212123"/>
</svg>
