<svg width="22" height="21" viewBox="0 0 22 21" fill="none" xmlns="http://www.w3.org/2000/svg">
<g clip-path="url(#clip0_268_1545)">
<path d="M20.9691 0.570977C20.6171 0.202781 20.1501 0 19.6544 0H10.9592C10.4634 0 9.99642 0.202781 9.64447 0.571018C9.30207 0.929166 9.11356 1.39642 9.11356 1.88667V6.93146C9.11356 7.94918 9.94154 8.77712 10.9592 8.77712H11.5745V10.6228C11.5745 10.8716 11.7243 11.096 11.9543 11.1912C12.1841 11.2864 12.4488 11.2337 12.6247 11.0578L14.9054 8.77712H19.6544C20.6721 8.77712 21.5001 7.94914 21.5001 6.93146V1.88667C21.5 1.39637 21.3115 0.929125 20.9691 0.570977ZM20.2696 6.9315C20.2696 7.27074 19.9936 7.54674 19.6544 7.54674H14.6505C14.4873 7.54674 14.3309 7.61154 14.2155 7.72692L12.8049 9.13756V8.16197C12.8049 7.8222 12.5294 7.54674 12.1896 7.54674H10.9592C10.62 7.54674 10.344 7.27074 10.344 6.9315V1.88671C10.344 1.53714 10.6315 1.23047 10.9592 1.23047H19.6544C19.9821 1.23047 20.2696 1.53714 20.2696 1.88671V6.9315Z" fill="#212123"/>
<path d="M11.5564 14.3692L5.46596 8.27883C5.22573 8.03857 4.83616 8.03857 4.59589 8.27883C4.35563 8.5191 4.35563 8.90863 4.59589 9.1489L5.11679 9.66979C4.56579 11.1499 3.69306 12.5127 2.57649 13.6292L1.04104 15.1646C0.319737 15.8859 0.319573 17.0534 1.04104 17.7748L1.98575 18.7195C2.55463 19.2884 3.40152 19.4058 4.08607 19.0797L5.466 20.4596C6.18549 21.1791 7.35641 21.1793 8.07615 20.4596C8.79745 19.7384 8.79757 18.5708 8.07615 17.8494L6.79818 16.5714C7.77357 15.7458 8.89363 15.0894 10.0908 14.6437L10.6864 15.2393C10.9266 15.4796 11.3162 15.4796 11.5564 15.2393C11.7967 14.999 11.7967 14.6095 11.5564 14.3692ZM3.72583 17.8494C3.48593 18.0893 3.09563 18.0893 2.85573 17.8494L1.91106 16.9047C1.67058 16.6643 1.67058 16.2751 1.91106 16.0347L3.44652 14.4992C3.65988 14.2858 3.8652 14.0643 4.06216 13.8355L5.925 15.6983C5.71783 15.8767 5.49249 16.0827 5.26129 16.314L3.72583 17.8494ZM7.20604 18.7195C7.44652 18.96 7.44652 19.3491 7.20604 19.5896C6.96618 19.8295 6.57584 19.8295 6.33598 19.5896L5.03091 18.2845L5.90101 17.4144L7.20604 18.7195ZM6.90462 14.9377L4.82275 12.8559C5.31244 12.1551 5.7294 11.4032 6.06388 10.6168L9.1437 13.6967C8.35731 14.0312 7.60545 14.4481 6.90462 14.9377Z" fill="#212123"/>
<path d="M12.7637 5.00391H17.654C17.9937 5.00391 18.2692 4.72845 18.2692 4.38867C18.2692 4.0489 17.9937 3.77344 17.654 3.77344H12.7637C12.4239 3.77344 12.1484 4.0489 12.1484 4.38867C12.1484 4.72845 12.4239 5.00391 12.7637 5.00391Z" fill="#212123"/>
</g>
<defs>
<clipPath id="clip0_268_1545">
<rect width="21" height="21" fill="white" transform="translate(0.5)"/>
</clipPath>
</defs>
</svg>
