<svg width="22" height="21" viewBox="0 0 22 21" fill="none" xmlns="http://www.w3.org/2000/svg">
<g clip-path="url(#clip0_268_1322)">
<path d="M19.6538 17.3104H19.2427V12.2585C19.2427 11.4738 18.6042 10.8353 17.8195 10.8353H14.4062V9.73592C14.4062 8.90744 13.732 8.23325 12.9034 8.23325H9.09662C8.26797 8.23325 7.59378 8.90744 7.59378 9.73592V12.6639H4.18051C3.39577 12.6639 2.7573 13.3022 2.7573 14.0869V17.3104H2.34618C1.32816 17.3104 0.5 18.1379 0.5 19.1551C0.5 20.1723 1.32816 21 2.34618 21H19.6538C20.6718 21 21.5 20.1723 21.5 19.1551C21.5 18.1379 20.6718 17.3104 19.6538 17.3104ZM17.8195 12.0658C17.9257 12.0658 18.0122 12.1523 18.0122 12.2585V17.3064H14.4062V12.0658H17.8195ZM8.82425 9.73592C8.82425 9.5858 8.9465 9.46371 9.09662 9.46371H12.9034C13.0535 9.46371 13.1758 9.5858 13.1758 9.73592V17.3064H8.82441L8.82425 9.73592ZM3.98777 14.0869C3.98777 13.9807 4.07429 13.8944 4.18051 13.8944H7.59378V17.3064H3.98777V14.0869ZM19.6538 19.7695H2.34618C2.00668 19.7695 1.73047 19.494 1.73047 19.1551C1.73047 18.8164 2.00668 18.5408 2.34618 18.5408H19.6538C19.9933 18.5408 20.2695 18.8164 20.2695 19.1551C20.2695 19.494 19.9933 19.7695 19.6538 19.7695Z" fill="#212123"/>
<path d="M7.8277 4.23422L8.3601 4.62051C8.41874 4.66312 8.44309 4.73795 8.42082 4.80684L8.21751 5.43185C8.02685 6.01808 8.22584 6.63123 8.72459 6.9938C9.22383 7.35686 9.86919 7.35718 10.3689 6.99461L10.9011 6.60832C10.9603 6.56538 11.0397 6.56538 11.0989 6.60832L11.6311 6.99461C11.8809 7.17581 12.1667 7.26633 12.4529 7.26633C12.7392 7.26633 13.0256 7.17549 13.2754 6.9938C13.7742 6.63123 13.9732 6.01808 13.7825 5.43185L13.5792 4.80684C13.5569 4.73795 13.5813 4.66312 13.6399 4.62051L14.1723 4.23422C14.6715 3.87181 14.871 3.25866 14.6807 2.67226C14.49 2.08523 13.968 1.70599 13.3505 1.70599H12.6927C12.6196 1.70599 12.5555 1.65969 12.5331 1.59048L12.3298 0.965469C12.139 0.378914 11.617 0 11 0C10.383 0 9.86102 0.378914 9.6702 0.965469L9.46688 1.59048C9.44445 1.65969 9.38036 1.70599 9.3073 1.70599H8.64945C8.03197 1.70599 7.50999 2.08523 7.31933 2.67226C7.12899 3.25866 7.32846 3.87181 7.8277 4.23422ZM8.48972 3.05214C8.51471 2.9754 8.56838 2.93646 8.64945 2.93646H9.3073C9.91485 2.93646 10.4493 2.54858 10.6371 1.97099L10.8404 1.34599C10.8653 1.2694 10.9189 1.23047 11 1.23047C11.0811 1.23047 11.1347 1.2694 11.1596 1.34599L11.3629 1.97115C11.5508 2.54858 12.0852 2.93646 12.6927 2.93646H13.3505C13.4316 2.93646 13.4853 2.9754 13.5103 3.05214C13.5351 3.1284 13.5146 3.19121 13.4496 3.23831L12.9172 3.62476C12.4255 3.98172 12.2212 4.60977 12.4091 5.18736L12.6124 5.81252C12.6371 5.88879 12.6168 5.95143 12.5517 5.9987C12.486 6.04644 12.4195 6.04644 12.3538 5.99886L11.8216 5.61241C11.5758 5.43409 11.2879 5.34501 11 5.34501C10.7121 5.34501 10.4242 5.43409 10.1784 5.61241L9.64616 5.9987C9.58047 6.04644 9.51382 6.04628 9.4483 5.9987C9.38325 5.95143 9.3629 5.88879 9.38757 5.81236L9.59089 5.18736C9.77882 4.60961 9.57455 3.98172 9.08284 3.6246L8.55044 3.23831C8.48539 3.19105 8.46488 3.1284 8.48972 3.05214Z" fill="#212123"/>
</g>
<defs>
<clipPath id="clip0_268_1322">
<rect width="21" height="21" fill="white" transform="translate(0.5)"/>
</clipPath>
</defs>
</svg>
