<svg width="26" height="26" viewBox="0 0 26 26" fill="none" xmlns="http://www.w3.org/2000/svg">
<path d="M22.1248 26H3.875C2.81088 26 1.94821 25.1373 1.94821 24.0732V2.2553C1.94821 1.00973 2.95795 0 4.20356 0H22.1248L20.1979 3.01087V24.0732L22.1248 26Z" fill="#EFF2FA"/>
<path d="M20.1978 3.01087L22.1248 0H17.9949C17.5355 0.717844 17.2914 1.55228 17.2914 2.40449L17.2922 15.5903C17.2924 20.2836 13.4879 24.0884 8.79461 24.0884H1.94864C1.95687 25.1456 2.81603 26 3.87503 26H22.1248L20.1978 24.0732V3.01087Z" fill="#D7DEED"/>
<path d="M24.0518 20.1141V24.0732C24.0518 25.1374 23.1891 26 22.125 26H22.1246C21.0605 26 20.1978 25.1374 20.1978 24.0732V19.4413H23.3789C23.7506 19.4413 24.0518 19.7425 24.0518 20.1141Z" fill="#AFB9D2"/>
<path d="M20.1978 6.55875V1.92679C20.1978 0.862672 21.0605 0 22.1246 0H22.125C23.1891 0 24.0518 0.862672 24.0518 1.92679V5.67648C24.0518 6.16373 23.6568 6.55875 23.1695 6.55875H20.1978Z" fill="#AFB9D2"/>
<path d="M5.16084 4.94328C5.05359 4.94328 4.95076 4.90068 4.87494 4.82486L4.17426 4.12423C4.01633 3.96635 4.01633 3.71031 4.17426 3.55238C4.33214 3.39451 4.58818 3.39451 4.74611 3.55238L5.16079 3.96706L6.14402 2.98389C6.3019 2.82601 6.55794 2.82601 6.71587 2.98389C6.8738 3.14177 6.8738 3.39781 6.71587 3.55574L5.44674 4.82486C5.37092 4.90073 5.26809 4.94328 5.16084 4.94328Z" fill="#42C66E"/>
<path d="M5.16104 8.60356C5.05754 8.60356 4.95405 8.56405 4.87514 8.48514L4.17451 7.78451C4.01658 7.62663 4.01658 7.37059 4.17451 7.21266C4.33239 7.05478 4.58843 7.05478 4.74636 7.21266L5.16104 7.62739L6.14426 6.64417C6.30214 6.48629 6.55818 6.48629 6.71611 6.64417C6.87404 6.80204 6.87404 7.05808 6.71611 7.21601L5.44698 8.48514C5.36797 8.56405 5.26453 8.60356 5.16104 8.60356Z" fill="#42C66E"/>
<path d="M17.2927 4.06631H9.13002C8.90668 4.06631 8.72565 3.88528 8.72565 3.66194C8.72565 3.4386 8.90668 3.25757 9.13002 3.25757H17.2926C17.516 3.25757 17.697 3.4386 17.697 3.66194C17.6971 3.88528 17.516 4.06631 17.2927 4.06631Z" fill="#AFB9D2"/>
<path d="M17.2927 8.34268H9.13002C8.90668 8.34268 8.72565 8.16164 8.72565 7.93831C8.72565 7.71497 8.90668 7.53394 9.13002 7.53394H17.2926C17.516 7.53394 17.697 7.71497 17.697 7.93831C17.697 8.16164 17.516 8.34268 17.2927 8.34268Z" fill="#AFB9D2"/>
<path d="M17.2927 13.0749H9.13002C8.90668 13.0749 8.72565 12.8939 8.72565 12.6706C8.72565 12.4473 8.90668 12.2662 9.13002 12.2662H17.2926C17.516 12.2662 17.697 12.4473 17.697 12.6706C17.697 12.8939 17.516 13.0749 17.2927 13.0749Z" fill="#AFB9D2"/>
<path d="M6.44267 14.4546H4.44752C4.01385 14.4546 3.66107 14.1018 3.66107 13.6682V11.673C3.66107 11.2394 4.01385 10.8866 4.44752 10.8866H6.44267C6.87634 10.8866 7.22912 11.2394 7.22912 11.673V13.6682C7.22912 14.1018 6.87629 14.4546 6.44267 14.4546ZM4.46981 13.6458H6.42037V11.6953H4.46981V13.6458Z" fill="#859FFF"/>
<path d="M17.2927 17.4698H9.13002C8.90668 17.4698 8.72565 17.2887 8.72565 17.0654C8.72565 16.842 8.90668 16.661 9.13002 16.661H17.2926C17.516 16.661 17.697 16.842 17.697 17.0654C17.697 17.2887 17.516 17.4698 17.2927 17.4698Z" fill="#AFB9D2"/>
<path d="M6.44267 18.8494H4.44752C4.01385 18.8494 3.66107 18.4966 3.66107 18.063V16.0678C3.66107 15.6342 4.01385 15.2814 4.44752 15.2814H6.44267C6.87634 15.2814 7.22912 15.6342 7.22912 16.0678V18.063C7.22912 18.4966 6.87629 18.8494 6.44267 18.8494ZM4.46981 18.0406H6.42037V16.0901H4.46981V18.0406Z" fill="#859FFF"/>
<path d="M17.2927 22.2348H9.13002C8.90668 22.2348 8.72565 22.0537 8.72565 21.8304C8.72565 21.6071 8.90668 21.426 9.13002 21.426H17.2926C17.516 21.426 17.697 21.6071 17.697 21.8304C17.6971 22.0537 17.516 22.2348 17.2927 22.2348Z" fill="#AFB9D2"/>
<path d="M6.44267 23.6145H4.44752C4.01385 23.6145 3.66107 23.2617 3.66107 22.8281V20.833C3.66107 20.3993 4.01385 20.0465 4.44752 20.0465H6.44267C6.87634 20.0465 7.22912 20.3993 7.22912 20.833V22.8281C7.22912 23.2617 6.87629 23.6145 6.44267 23.6145ZM4.46981 22.8058H6.42037V20.8552H4.46981V22.8058Z" fill="#859FFF"/>
</svg>
