<svg width="current" height="current" viewBox="0 0 89 65" fill="none" xmlns="http://www.w3.org/2000/svg">
<rect x="64.111" y="16.9514" width="11.3333" height="68" rx="5.66667" transform="rotate(45 64.111 16.9514)" fill="#999999"/>
<mask id="mask0_334_5999" style="mask-type:alpha" maskUnits="userSpaceOnUse" x="18" y="19" width="52" height="52">
<rect x="64.111" y="16.9514" width="11.3333" height="68" rx="5.66667" transform="rotate(45 64.111 16.9514)" fill="#FFDD33"/>
</mask>
<g mask="url(#mask0_334_5999)">
<rect x="64.111" y="16.9514" width="5.66667" height="68" transform="rotate(45 64.111 16.9514)" fill="#BEBEBE"/>
</g>
<rect x="72.1249" y="24.9653" width="11.3333" height="28.3333" rx="5.66667" transform="rotate(45 72.1249 24.9653)" fill="#787878"/>
<mask id="mask1_334_5999" style="mask-type:alpha" maskUnits="userSpaceOnUse" x="54" y="27" width="24" height="24">
<path d="M68.1179 28.9723C70.3309 26.7593 73.9188 26.7593 76.1318 28.9723C78.3448 31.1852 78.3448 34.7732 76.1318 36.9861L64.111 49.007C61.898 51.2199 58.3101 51.2199 56.0971 49.007C53.8842 46.794 53.8842 43.2061 56.0971 40.9931L68.1179 28.9723Z" fill="#FF4D88"/>
</mask>
<g mask="url(#mask1_334_5999)">
<path d="M76.1318 28.9722L80.1388 32.9791L60.1041 53.0138L56.0971 49.0069L76.1318 28.9722Z" fill="#707070"/>
</g>
<rect x="48.0833" y="0.923584" width="11.3333" height="28.3333" rx="5.66667" transform="rotate(45 48.0833 0.923584)" fill="#787878"/>
<mask id="mask2_334_5999" style="mask-type:alpha" maskUnits="userSpaceOnUse" x="30" y="3" width="24" height="24">
<path d="M44.0763 4.93052C46.2893 2.71755 49.8772 2.71755 52.0902 4.93052C54.3032 7.14349 54.3032 10.7314 52.0902 12.9444L40.0694 24.9652C37.8564 27.1782 34.2685 27.1782 32.0555 24.9652C29.8425 22.7522 29.8425 19.1643 32.0555 16.9513L44.0763 4.93052Z" fill="#FF4D88"/>
</mask>
<g mask="url(#mask2_334_5999)">
<path d="M52.0902 4.93042L56.0971 8.93736L36.0625 28.9721L32.0555 24.9651L52.0902 4.93042Z" fill="#707070"/>
</g>
<rect x="80.1388" y="32.979" width="11.3333" height="28.3333" rx="5.66667" transform="rotate(45 80.1388 32.979)" fill="#787878"/>
<mask id="mask3_334_5999" style="mask-type:alpha" maskUnits="userSpaceOnUse" x="62" y="35" width="24" height="24">
<path d="M76.1319 36.9859C78.3448 34.773 81.9328 34.773 84.1457 36.9859C86.3587 39.1989 86.3587 42.7868 84.1457 44.9998L72.1249 57.0206C69.9119 59.2336 66.324 59.2336 64.111 57.0206C61.8981 54.8077 61.8981 51.2197 64.111 49.0068L76.1319 36.9859Z" fill="#FF4D88"/>
</mask>
<g mask="url(#mask3_334_5999)">
<path d="M84.1458 36.9858L88.1527 40.9928L68.118 61.0275L64.1111 57.0205L84.1458 36.9858Z" fill="#707070"/>
</g>
<rect x="56.0972" y="8.9375" width="11.3333" height="28.3333" rx="5.66667" transform="rotate(45 56.0972 8.9375)" fill="#787878"/>
<mask id="mask4_334_5999" style="mask-type:alpha" maskUnits="userSpaceOnUse" x="38" y="11" width="24" height="24">
<path d="M52.0902 12.9444C54.3032 10.7315 57.8911 10.7315 60.1041 12.9444C62.3171 15.1574 62.3171 18.7453 60.1041 20.9583L48.0833 32.9791C45.8703 35.1921 42.2824 35.1921 40.0694 32.9791C37.8564 30.7662 37.8564 27.1782 40.0694 24.9653L52.0902 12.9444Z" fill="#FF4D88"/>
</mask>
<g mask="url(#mask4_334_5999)">
<path d="M60.1041 12.9443L64.1111 16.9513L44.0764 36.986L40.0694 32.979L60.1041 12.9443Z" fill="#707070"/>
</g>
</svg>
