<svg width="28" height="28" viewBox="0 0 28 28" fill="none" xmlns="http://www.w3.org/2000/svg">
<g clip-path="url(#clip0_361_4929)">
<path d="M14.6322 0.258713L17.8274 4.96397L23.4138 3.89607C23.8231 3.81788 24.1824 4.17698 24.104 4.58628L23.0363 10.1727L27.7416 13.3679C28.0862 13.602 28.0862 14.11 27.7416 14.3441L23.0363 17.5393L24.104 23.1255C24.1824 23.5351 23.8231 23.8942 23.4138 23.816L17.8274 22.7481L14.6322 27.4533C14.3981 27.7981 13.8901 27.7981 13.656 27.4533L10.4608 22.7481L0.87362 27.9261C0.357934 28.2046 -0.204535 27.6424 0.0740295 27.1265L5.25203 17.5393L0.546777 14.3441C0.20199 14.11 0.20199 13.602 0.546777 13.3679L5.25203 10.1727L4.18413 4.58628C4.10595 4.17698 4.46526 3.81788 4.87456 3.89607L10.4608 4.96397L13.656 0.258713C13.8901 -0.0860747 14.3981 -0.0860747 14.6322 0.258713Z" fill="#FF607C"/>
<path d="M27.7415 14.3444L23.036 17.5393L24.1041 23.1258C24.1819 23.5353 23.823 23.8942 23.4135 23.8158L17.8271 22.7483L14.6321 27.4535C14.3984 27.7983 13.8902 27.7983 13.6559 27.4535L13.3183 26.956C13.5273 26.9088 13.724 26.7853 13.8637 26.5798L16.8839 22.1318C17.143 21.7498 17.6051 21.5584 18.0586 21.6451L22.8489 22.5611L21.9331 17.7702C21.8462 17.3167 22.0378 16.8553 22.4197 16.5962L26.4546 13.8558L22.4197 11.1161C22.0378 10.857 21.8464 10.3949 21.9331 9.94138L22.8491 5.1511L18.0586 6.06712C17.6051 6.15342 17.1432 5.96244 16.8841 5.58027L13.7921 1.02711C13.6751 0.854079 13.4976 0.766921 13.3179 0.756667L13.6559 0.258713C13.8902 -0.0860747 14.3984 -0.0860747 14.6321 0.258713L17.8271 4.96397L23.4135 3.89585C23.8232 3.8181 24.1821 4.17698 24.1044 4.5865L23.036 10.1729L27.7415 13.3679C28.0863 13.6018 28.0863 14.11 27.7415 14.3444Z" fill="#ED4362"/>
<path d="M15.3522 18.9778C15.3522 19.7245 14.7468 20.3299 14 20.3299C13.2534 20.3299 12.648 19.7245 12.648 18.9778C12.648 18.231 13.2534 17.6256 14 17.6256C14.7468 17.6256 15.3522 18.231 15.3522 18.9778Z" fill="#FFF5F5"/>
<path d="M15.3522 18.9774C15.3522 19.7244 14.7466 20.3296 14 20.3296C13.8152 20.3296 13.6394 20.2924 13.479 20.2254C13.9669 20.0214 14.31 19.5396 14.31 18.9774C14.31 18.4158 13.9669 17.9334 13.479 17.7296C13.6394 17.6625 13.8152 17.6254 14 17.6254C14.7466 17.6254 15.3522 18.231 15.3522 18.9774Z" fill="#EFE2DD"/>
<path d="M14.4492 15.7575H13.5507C13.2619 15.7575 13.0199 15.5389 12.9904 15.2516L12.2609 8.14203C12.2269 7.80984 12.4875 7.52124 12.8214 7.52124H15.1788C15.5127 7.52124 15.7733 7.80984 15.7391 8.14203L15.0096 15.2516C14.9801 15.5389 14.7381 15.7575 14.4492 15.7575Z" fill="#FFF5F5"/>
<path d="M15.7391 8.142L15.0096 15.2514C14.9803 15.5391 14.738 15.7572 14.449 15.7572H13.5509C13.5364 15.7572 13.5217 15.7566 13.5071 15.7555C13.7763 15.7346 13.9961 15.5246 14.0237 15.2514L14.7532 8.142C14.7872 7.81003 14.5268 7.521 14.1927 7.521H15.1785C15.5126 7.52121 15.773 7.81024 15.7391 8.142Z" fill="#EFE2DD"/>
</g>
<defs>
<clipPath id="clip0_361_4929">
<rect width="28" height="28" fill="white"/>
</clipPath>
</defs>
</svg>
