<svg xmlns="http://www.w3.org/2000/svg" width="19" height="19" viewBox="0 0 19 19" fill="none" class="flex-grow-0 flex-shrink-0 w-[18px] h-[18px] relative" preserveAspectRatio="none"><path d="M16.7351 8.90001H9.20508V11.9H13.5051C13.3251 12.9 12.7651 13.38 11.9051 13.94V15.95H14.5051C15.2915 15.1913 15.9098 14.2758 16.3198 13.2629C16.7298 12.2499 16.9224 11.1622 16.8851 10.07C16.8851 9.50001 16.8351 9.41001 16.7351 8.89001V8.90001Z" fill="#4285F4"/><path d="M9.20518 17.9C11.3652 17.9 13.1752 17.18 14.5052 15.96L11.9052 13.96C11.2878 14.3612 10.5865 14.615 9.85537 14.7017C9.12426 14.7885 8.38299 14.7059 7.6889 14.4604C6.99481 14.2148 6.36651 13.8129 5.8526 13.2857C5.33868 12.7585 4.95293 12.1202 4.72518 11.42H2.05518V13.49C2.72089 14.8158 3.74212 15.9303 5.00475 16.7091C6.26738 17.4878 7.72169 17.9002 9.20518 17.9Z" fill="#34A853"/><path d="M4.72509 11.42C4.39572 10.4334 4.39572 9.36657 4.72509 8.38V6.31H2.05509C1.49567 7.42404 1.20435 8.65339 1.20435 9.9C1.20435 11.1466 1.49567 12.376 2.05509 13.49L4.72509 11.42Z" fill="#FBBC05"/><path d="M9.20518 5.08004C10.3752 5.08004 11.4352 5.48004 12.2652 6.28004L14.5652 3.98004C13.6526 3.1535 12.5616 2.54875 11.3771 2.21287C10.1926 1.87698 8.94651 1.81904 7.73593 2.04354C6.52535 2.26805 5.38292 2.76894 4.3976 3.50722C3.41229 4.24551 2.61067 5.20125 2.05518 6.30004L4.72518 8.39004C5.03273 7.44039 5.63045 6.61115 6.43416 6.01914C7.23786 5.42712 8.20704 5.10217 9.20518 5.09004V5.08004Z" fill="#EA4335"/></svg>