<svg width="36" height="36" viewBox="0 0 36 36" fill="none" xmlns="http://www.w3.org/2000/svg">
<path d="M36 18C36 27.9411 27.9411 36 18 36C8.05887 36 0 27.9411 0 18C0 8.05887 8.05887 0 18 0C27.9411 0 36 8.05887 36 18Z" fill="#D1D3D7"/>
<path d="M25 15C25 11.134 21.866 8 18 8C14.134 8 11 11.134 11 15C11 18.866 14.134 22 18 22C21.866 22 25 18.866 25 15Z" fill="#F7F8FA"/>
<path d="M5.78163 31.218C8.30851 26.8904 12.8794 23.9999 18.0986 23.9999C23.27 23.9999 27.8048 26.8376 30.3456 31.0992C27.1228 34.1377 22.7789 36 18 36C13.2837 36 8.99108 34.1861 5.78163 31.218Z" fill="#F7F8FA"/>
</svg>
