<svg width="20" height="20" viewBox="0 0 20 20" fill="none" xmlns="http://www.w3.org/2000/svg">
<circle cx="10" cy="10" r="10" fill="#FF607C"/>
<path d="M12.2659 10.8287C12.2659 11.921 11.3616 12.8095 10.25 12.8095C9.13836 12.8095 8.23439 11.921 8.23439 10.8287C8.23439 9.73654 9.13836 8.84803 10.25 8.84803C11.3616 8.84803 12.2659 9.73688 12.2659 10.8287ZM16.5 8.01623V13.6419C16.5 14.3919 15.8811 15 15.1178 15H5.38221C4.61888 15 4 14.3919 4 13.6419V8.01623C4 7.26625 4.61888 6.65818 5.38221 6.65818H7.08232V6.18829C7.08232 5.53202 7.62346 5 8.29176 5H12.2082C12.8765 5 13.4177 5.53202 13.4177 6.18829V6.65784H15.1178C15.8811 6.65818 16.5 7.26625 16.5 8.01623ZM13.3026 10.8287C13.3026 9.17498 11.9332 7.8295 10.25 7.8295C8.56716 7.8295 7.19774 9.17498 7.19774 10.8287C7.19774 12.4825 8.56716 13.828 10.25 13.828C11.9332 13.828 13.3026 12.4825 13.3026 10.8287Z" fill="white"/>
</svg>
