<svg width="44" height="44" viewBox="0 0 44 44" fill="none" xmlns="http://www.w3.org/2000/svg">
<path d="M32.8085 33.2451V39.0877C32.8085 39.5404 33.1506 39.9191 33.6008 39.9677C35.6116 40.1851 37.4739 40.4917 39.1308 40.8713C39.6846 40.9981 40.2116 40.5763 40.2116 40.0082V35.1846C40.2116 34.7743 39.9297 34.4192 39.5308 34.323C37.5646 33.8488 35.2901 33.4798 32.8085 33.2451Z" fill="#FB1466"/>
<path d="M39.5308 34.323C38.9439 34.1814 38.3289 34.0495 37.6897 33.9275V40.5705C38.1848 40.6651 38.6666 40.765 39.1308 40.8713C39.6846 40.9982 40.2116 40.5763 40.2116 40.0083V35.1845C40.2117 34.7742 39.9297 34.4191 39.5308 34.323Z" fill="#E01058"/>
<path d="M11.1915 33.2451V39.0877C11.1915 39.5404 10.8494 39.9191 10.3992 39.9677C8.38837 40.1851 6.5261 40.4917 4.86923 40.8713C4.31545 40.9981 3.78839 40.5763 3.78839 40.0082V35.1846C3.78839 34.7743 4.07035 34.4192 4.46919 34.323C6.43544 33.8488 8.70986 33.4798 11.1915 33.2451Z" fill="#FB1466"/>
<path d="M8.36395 33.5833V40.2262C9.02335 40.13 9.70166 40.0431 10.3992 39.9677C10.8494 39.9191 11.1915 39.5404 11.1915 39.0877V33.2451C10.2146 33.3375 9.27051 33.451 8.36395 33.5833Z" fill="#E01058"/>
<path d="M39.127 15.2868L40.0189 16.9241C40.1259 17.1204 40.3717 17.1929 40.5681 17.086C42.0286 16.2904 42.5676 14.4615 41.772 13.001L40.8801 11.3637C40.7732 11.1674 40.5273 11.0949 40.3309 11.2018C38.8705 11.9974 38.3315 13.8264 39.127 15.2868Z" fill="#8AE7D0"/>
<path d="M41.2242 18.035L41.4815 19.8817C41.5123 20.1031 41.3578 20.3077 41.1363 20.3385C39.4892 20.568 37.9678 19.4187 37.7384 17.7715L37.4812 15.9249C37.4503 15.7034 37.6048 15.4989 37.8263 15.468C39.4734 15.2386 40.9948 16.3879 41.2242 18.035Z" fill="#27D1B3"/>
<path d="M40.5193 18.1333L40.7765 19.98C40.8073 20.2014 41.0119 20.3559 41.2333 20.3251C42.8805 20.0956 44.0298 18.5743 43.8004 16.9271L43.5432 15.0805C43.5123 14.859 43.3078 14.7045 43.0863 14.7354C41.4392 14.9648 40.2898 16.4861 40.5193 18.1333Z" fill="#17998C"/>
<path d="M40.7537 22.1533L40.4461 24.0911C40.4093 24.3235 40.1909 24.4821 39.9585 24.4452C38.23 24.1708 37.0511 22.5471 37.3255 20.8186L37.633 18.8807C37.6699 18.6484 37.8883 18.4898 38.1207 18.5267C39.8492 18.801 41.0281 20.4247 40.7537 22.1533Z" fill="#8AE7D0"/>
<path d="M40.0139 22.0359L39.7064 23.9737C39.6695 24.206 39.828 24.4244 40.0604 24.4613C41.789 24.7357 43.4127 23.5568 43.6871 21.8282L43.9947 19.8904C44.0315 19.658 43.8731 19.4397 43.6406 19.4028C41.912 19.1284 40.2883 20.3073 40.0139 22.0359Z" fill="#27D1B3"/>
<path d="M39.3704 26.1633L38.646 27.9868C38.5591 28.2055 38.3115 28.3123 38.0928 28.2254C36.4661 27.5793 35.6714 25.7369 36.3175 24.1103L37.0418 22.2868C37.1287 22.0681 37.3764 21.9613 37.5951 22.0482C39.2217 22.6943 40.0165 24.5367 39.3704 26.1633Z" fill="#27D1B3"/>
<path d="M38.6742 25.8867L37.9498 27.7102C37.8629 27.9289 37.9699 28.1766 38.1885 28.2635C39.8151 28.9096 41.6574 28.1148 42.3036 26.4882L43.028 24.6647C43.1148 24.4459 43.0079 24.1983 42.7893 24.1114C41.1628 23.4653 39.3204 24.2601 38.6742 25.8867Z" fill="#17998C"/>
<path d="M37.1997 29.9363L36.1312 31.7381C36.0031 31.9542 35.724 32.0255 35.5079 31.8973C33.9007 30.9443 33.3705 28.8687 34.3235 27.2615L35.392 25.4598C35.5201 25.2436 35.7991 25.1724 36.0153 25.3005C37.6225 26.2536 38.1528 28.3291 37.1997 29.9363Z" fill="#8AE7D0"/>
<path d="M36.5118 29.5283L35.4433 31.3301C35.3152 31.5462 35.3864 31.8253 35.6026 31.9534C37.2098 32.9065 39.2853 32.3762 40.2384 30.769L41.3069 28.9673C41.435 28.7511 41.3637 28.4721 41.1476 28.344C39.5404 27.3909 37.4649 27.9211 36.5118 29.5283Z" fill="#27D1B3"/>
<path d="M33.9039 33.1674L32.4227 34.6486C32.2451 34.8262 31.957 34.8262 31.7794 34.6486C30.4581 33.3273 30.4581 31.1851 31.7794 29.8638L33.2606 28.3826C33.4382 28.205 33.7263 28.205 33.9039 28.3826C35.2251 29.7039 35.2251 31.8462 33.9039 33.1674Z" fill="#27D1B3"/>
<path d="M33.3384 32.6019L31.8572 34.0831C31.6796 34.2608 31.6796 34.5488 31.8572 34.7265C33.1785 36.0478 35.3207 36.0478 36.642 34.7265L38.1232 33.2453C38.3008 33.0676 38.3008 32.7796 38.1232 32.6019C36.8019 31.2806 34.6597 31.2806 33.3384 32.6019Z" fill="#17998C"/>
<path d="M4.87301 15.2868L3.98115 16.9241C3.87416 17.1204 3.62829 17.1929 3.43193 17.086C1.97142 16.2904 1.43242 14.4615 2.22803 13.001L3.11989 11.3637C3.22688 11.1674 3.47275 11.0949 3.66911 11.2018C5.12954 11.9974 5.66854 13.8264 4.87301 15.2868Z" fill="#8AE7D0"/>
<path d="M2.77578 18.035L2.51857 19.8817C2.48772 20.1031 2.64223 20.3077 2.8637 20.3385C4.51086 20.568 6.03221 19.4187 6.26166 17.7715L6.51888 15.9249C6.54973 15.7034 6.39521 15.4989 6.17375 15.468C4.52659 15.2386 3.00523 16.3879 2.77578 18.035Z" fill="#27D1B3"/>
<path d="M3.48073 18.1333L3.22352 19.98C3.19267 20.2014 2.98814 20.3559 2.76668 20.3251C1.11951 20.0956 -0.0298143 18.5743 0.199639 16.9271L0.45685 15.0805C0.487701 14.859 0.692233 14.7045 0.913694 14.7354C2.56086 14.9648 3.71019 16.4861 3.48073 18.1333Z" fill="#17998C"/>
<path d="M3.24626 22.1533L3.55383 24.0911C3.59069 24.3235 3.80906 24.4821 4.04144 24.4452C5.76998 24.1708 6.94887 22.5471 6.67448 20.8186L6.36691 18.8807C6.33004 18.6484 6.11167 18.4898 5.8793 18.5267C4.15075 18.801 2.97186 20.4247 3.24626 22.1533Z" fill="#8AE7D0"/>
<path d="M3.98604 22.0359L4.29361 23.9737C4.33047 24.206 4.17201 24.4244 3.93954 24.4613C2.211 24.7357 0.587294 23.5568 0.312896 21.8282L0.0053254 19.8904C-0.0315418 19.658 0.126927 19.4397 0.359388 19.4028C2.08793 19.1284 3.71164 20.3073 3.98604 22.0359Z" fill="#27D1B3"/>
<path d="M4.62965 26.1633L5.35402 27.9868C5.4409 28.2055 5.68857 28.3123 5.90728 28.2254C7.53391 27.5793 8.32866 25.7369 7.68258 24.1103L6.95821 22.2868C6.87133 22.0681 6.62366 21.9613 6.40495 22.0482C4.77832 22.6943 3.98357 24.5367 4.62965 26.1633Z" fill="#27D1B3"/>
<path d="M5.32581 25.8867L6.05018 27.7102C6.13706 27.9289 6.03015 28.1766 5.81153 28.2635C4.1849 28.9096 2.34258 28.1148 1.69641 26.4882L0.972045 24.6647C0.885163 24.4459 0.992069 24.1983 1.21069 24.1114C2.83723 23.4653 4.67965 24.2601 5.32581 25.8867Z" fill="#17998C"/>
<path d="M6.80029 29.9363L7.86875 31.7381C7.99689 31.9542 8.27593 32.0255 8.49206 31.8973C10.0993 30.9443 10.6295 28.8687 9.67645 27.2615L8.60799 25.4598C8.47986 25.2436 8.20082 25.1724 7.98468 25.3005C6.37748 26.2536 5.84716 28.3291 6.80029 29.9363Z" fill="#8AE7D0"/>
<path d="M7.48815 29.5283L8.55661 31.3301C8.68474 31.5462 8.6135 31.8253 8.39737 31.9534C6.79016 32.9065 4.71469 32.3762 3.76155 30.769L2.69309 28.9673C2.56496 28.7511 2.6362 28.4721 2.85234 28.344C4.45954 27.3909 6.53502 27.9211 7.48815 29.5283Z" fill="#27D1B3"/>
<path d="M10.0961 33.1674L11.5773 34.6486C11.7549 34.8262 12.043 34.8262 12.2206 34.6486C13.5419 33.3273 13.5419 31.1851 12.2206 29.8638L10.7394 28.3826C10.5618 28.205 10.2737 28.205 10.0961 28.3826C8.77486 29.7039 8.77486 31.8462 10.0961 33.1674Z" fill="#27D1B3"/>
<path d="M10.6616 32.6019L12.1428 34.0831C12.3204 34.2608 12.3204 34.5488 12.1428 34.7265C10.8215 36.0478 8.67932 36.0478 7.35803 34.7265L5.87682 33.2453C5.69918 33.0676 5.69918 32.7796 5.87682 32.6019C7.1981 31.2806 9.34027 31.2806 10.6616 32.6019Z" fill="#17998C"/>
<path d="M8.27271 36.1841C8.27271 36.7528 8.80053 37.1739 9.35483 37.0469C12.8381 36.2488 17.2285 35.7728 22 35.7728C26.7715 35.7728 31.1619 36.2488 34.6452 37.0469C35.1995 37.1739 35.7273 36.7528 35.7273 36.1841V31.3605C35.7273 30.9506 35.4461 30.5953 35.0476 30.4992C31.503 29.6442 26.9572 29.1304 22 29.1304C17.0428 29.1304 12.497 29.6442 8.95238 30.4991C8.55389 30.5952 8.27271 30.9505 8.27271 31.3604V36.1841Z" fill="#FC5A95"/>
<path d="M35.0477 30.4991C34.3411 30.3287 33.5942 30.1721 32.8128 30.0302V36.6725C33.4474 36.7878 34.0594 36.9126 34.6452 37.0469C35.1995 37.1739 35.7273 36.7527 35.7273 36.1841V31.3605C35.7274 30.9505 35.4462 30.5952 35.0477 30.4991Z" fill="#FB3A82"/>
<path d="M30.6429 29.7C28.4887 31.8706 25.1492 33 22 33C18.8508 33 15.3542 31.8706 13.2 29.7C15.6773 29.3219 19.0758 28.9143 22 28.9143C24.9242 28.9143 28.1656 29.3219 30.6429 29.7Z" fill="#FB3A82"/>
<path d="M22.0295 30.7155C8.54465 30.7155 8.55031 17.6168 8.56148 17.3917C8.91549 10.2601 14.8099 4.58655 22.0295 4.58655C29.2491 4.58655 35.1435 10.2601 35.4975 17.3918C35.5087 17.6169 35.5144 30.7155 22.0295 30.7155Z" fill="#FFE27A"/>
<path d="M22.0295 30.1969C14.8099 30.1969 8.91567 24.5234 8.5616 17.3917C8.55042 17.6169 8.54462 17.8435 8.54462 18.0714C8.54462 25.5188 14.582 31.5562 22.0295 31.5562C29.4769 31.5562 35.5143 25.5188 35.5143 18.0714C35.5143 17.8434 35.5085 17.6169 35.4974 17.3917C35.1433 24.5234 29.249 30.1969 22.0295 30.1969Z" fill="#F9CF58"/>
<path d="M22.0295 27.8139C11.4277 27.8139 11.4135 17.3887 11.4277 17.164C11.7782 11.6136 16.3908 7.22046 22.0295 7.22046C27.6682 7.22046 32.2808 11.6136 32.6313 17.164C32.6455 17.3887 32.6313 27.8139 22.0295 27.8139Z" fill="#FFBA57"/>
<path d="M22.0295 27.3353C16.3908 27.3353 11.779 22.942 11.4285 17.3917C11.4143 17.6165 11.4062 17.843 11.4062 18.0714C11.4062 23.9384 16.1624 28.6946 22.0295 28.6946C27.8965 28.6946 32.6527 23.9384 32.6527 18.0714C32.6527 17.843 32.6446 17.6165 32.6304 17.3917C32.2799 22.942 27.6681 27.3353 22.0295 27.3353Z" fill="#FFAC3E"/>
<path d="M22.6353 24.3816C21.8978 24.3816 21.2999 23.7837 21.2999 23.0461V22.3397V15.5618C21.2999 15.5618 20.5008 16.3631 19.5447 15.8823C18.7993 15.5074 18.7993 14.5425 18.7993 14.5425L20.4458 11.7631C20.6862 11.3572 21.123 11.1083 21.5948 11.1083H22.6353C23.3729 11.1083 23.9708 11.7061 23.9708 12.4438V22.3397V23.0461C23.9708 23.7837 23.3729 24.3816 22.6353 24.3816Z" fill="#FFE27A"/>
<path d="M21.1164 14.5123C20.7619 15.1107 20.0083 15.3702 19.3797 15.0723C19.1253 14.9518 18.9292 14.7645 18.7988 14.5434C18.428 15.1707 18.6288 15.9777 19.2462 16.359C19.883 16.7523 20.7339 16.5175 21.1152 15.8736L21.3 15.5616V14.5625C21.3 14.4622 21.1675 14.426 21.1164 14.5123Z" fill="#F9CF58"/>
<path d="M22.6353 23.6752C21.8977 23.6752 21.2998 23.0773 21.2998 22.3397V23.6991C21.2998 24.4367 21.8977 25.0346 22.6353 25.0346C23.3728 25.0346 23.9708 24.4367 23.9708 23.6991V22.3397C23.9708 23.0773 23.3728 23.6752 22.6353 23.6752Z" fill="#F9CF58"/>
</svg>
