<svg width="50" height="41" viewBox="0 0 50 41" fill="none" xmlns="http://www.w3.org/2000/svg">
<path d="M25 29.3424C24.417 29.3424 23.9453 28.8304 23.9453 28.1977V20.4923C23.9453 19.8596 24.417 19.3477 25 19.3477C25.583 19.3477 26.0547 19.8596 26.0547 20.4923V28.1977C26.0547 28.8304 25.583 29.3424 25 29.3424Z" fill="#FABE2C"/>
<path d="M26.0547 28.1977V20.4923C26.0547 19.8596 25.583 19.3477 25 19.3477V29.3424C25.583 29.3424 26.0547 28.8304 26.0547 28.1977Z" fill="#FF9100"/>
<path d="M42.4662 12.4653C42.2457 12.2787 41.9656 12.2049 41.6854 12.234C40.6117 12.3839 39.5116 12.9382 38.595 13.8059C38.5517 13.4279 38.4714 13.0429 38.3982 12.6624C39.4282 12.1181 40.2264 11.2372 40.639 10.1312C41.2261 8.59752 41.0407 6.70612 40.1528 5.1959C39.6563 4.34747 39.1249 3.57168 38.5749 2.89089C38.1897 2.41471 37.5244 2.36777 37.0877 2.7836C36.136 3.68798 35.4933 5.00032 35.2296 6.5899C35.0092 8.01068 35.1369 9.32753 35.6149 10.5136C37.8281 15.8146 36.449 22.4396 31.2973 26.1747C30.6649 26.6029 30.2734 27.3776 30.2734 28.1981C30.2734 28.8308 30.774 29.2925 31.357 29.2925C31.9399 29.2925 32.4405 28.7302 32.4405 28.0975C32.5177 28.0416 32.589 27.987 32.6648 27.9312C33.5083 28.7358 34.5344 29.1776 35.6395 29.1785H35.6746C38.2619 29.1785 39.9566 26.8756 41.0386 24.3147C41.2775 23.7524 41.0592 23.0873 40.5504 22.8123C39.5869 22.2933 38.4967 22.142 37.2424 22.3082C37.4059 21.9551 37.553 21.5991 37.6861 21.2367C37.8885 21.2648 38.0909 21.2919 38.2907 21.2919C39.1888 21.2919 40.054 21.0102 40.8162 20.4546C42.0748 19.5302 42.9503 17.8522 42.9854 16.105C43.0245 15.222 42.9853 14.2818 42.8659 13.2299C42.8307 12.9269 42.6886 12.652 42.4662 12.4653Z" fill="#FF9100"/>
<path d="M18.4288 25.9699C13.4224 22.1092 12.3469 15.5077 14.451 10.4071L14.4401 10.4014C14.8822 9.2557 15.0031 7.97495 14.7868 6.57844C14.5273 5.00335 13.8866 3.69101 12.9308 2.78335C12.4941 2.36753 11.8287 2.41446 11.4436 2.89065C10.8936 3.57143 10.3621 4.34722 9.86569 5.19452C8.97786 6.70695 8.79244 8.59949 9.37751 10.1186C9.7894 11.2319 10.5874 12.1148 11.6159 12.6601C11.5442 13.0441 11.4776 13.4269 11.4341 13.8162C10.513 12.9412 9.39115 12.384 8.31432 12.2336C8.03827 12.2056 7.75611 12.2783 7.53357 12.4649C7.31103 12.6516 7.16689 12.9277 7.13391 13.2296C7.01649 14.2692 6.97733 15.2104 7.01234 16.0857C7.05769 17.8966 7.9643 19.5813 9.21467 20.4632C9.94592 21.0121 10.8111 21.2927 11.7175 21.2927C11.9315 21.2927 12.1483 21.265 12.3652 21.2335C12.4976 21.5893 12.6379 21.9396 12.7959 22.2833C11.8448 22.1468 10.6515 22.1796 9.48453 22.8084C9.23112 22.9448 9.03959 23.1874 8.951 23.4803C8.8624 23.7732 8.88919 24.0918 9.01899 24.3645C9.38567 25.1213 9.82027 25.9977 10.3559 26.7825C11.972 29.3398 15.1465 30.0238 17.3492 27.9462C17.4755 28.043 17.5941 28.1345 17.6151 28.1508L17.6171 28.1977C17.6171 28.8304 18.0889 29.3424 18.6718 29.3424C19.2548 29.3424 19.7265 28.8304 19.7265 28.1977C19.7265 26.9671 19.0076 26.4148 18.4288 25.9699Z" fill="#FABE2C"/>
<path d="M29.7666 24.4685L24.9999 21.7823L20.2332 24.4685C19.8809 24.6675 19.4504 24.6328 19.127 24.3779C18.8037 24.123 18.6409 23.6927 18.7068 23.2645L19.5864 17.5154L15.7611 13.4251C15.4768 13.12 15.3738 12.6672 15.4975 12.2559C15.6211 11.8434 15.9486 11.5416 16.3441 11.4767L21.6299 10.6127L24.0379 4.83223C24.3799 4.01393 25.62 4.01393 25.9619 4.83223L28.37 10.6127L33.6558 11.4767C34.0513 11.5416 34.3788 11.8434 34.5024 12.2559C34.626 12.6673 34.523 13.12 34.2387 13.4251L30.4134 17.5154L31.2931 23.2645C31.359 23.6926 31.1962 24.123 30.8728 24.3779C30.5481 24.6353 30.1173 24.6666 29.7666 24.4685Z" fill="#FED843"/>
<path d="M31.3281 27.053H18.6719C18.0812 27.053 17.6172 27.5566 17.6172 28.1977V37.3551H32.3828V28.1977C32.3828 27.5566 31.9188 27.053 31.3281 27.053Z" fill="#646D73"/>
<path d="M31.3281 27.0532H25V37.3554H32.3828V28.1979C32.3828 27.5568 31.9188 27.0532 31.3281 27.0532Z" fill="#474F54"/>
<path d="M29.7668 24.4687C30.1175 24.6668 30.5483 24.6356 30.8729 24.3782C31.1963 24.1233 31.3591 23.6929 31.2932 23.2648L30.4136 17.5156L34.2388 13.4254C34.5231 13.1202 34.6261 12.6674 34.5025 12.2561C34.3789 11.8436 34.0514 11.5418 33.6559 11.477L28.3701 10.6129L25.962 4.83245C25.791 4.42334 25.3955 4.21875 25 4.21875V21.7825L29.7668 24.4687Z" fill="#FABE2C"/>
<path d="M33.4375 38.5001H16.5625C15.9795 38.5001 15.5078 37.9881 15.5078 37.3554C15.5078 36.7227 15.9795 36.2107 16.5625 36.2107H33.4375C34.0204 36.2107 34.4922 36.7227 34.4922 37.3554C34.4922 37.9881 34.0204 38.5001 33.4375 38.5001Z" fill="#474F54"/>
<path d="M33.4375 36.2107H25V38.5001H33.4375C34.0204 38.5001 34.4922 37.9881 34.4922 37.3554C34.4922 36.7227 34.0204 36.2107 33.4375 36.2107Z" fill="#32393F"/>
<path d="M27.1094 33.9212H22.8906C22.3077 33.9212 21.8359 33.4092 21.8359 32.7765C21.8359 32.1438 22.3077 31.6318 22.8906 31.6318H27.1094C27.6923 31.6318 28.1641 32.1438 28.1641 32.7765C28.1641 33.4092 27.6923 33.9212 27.1094 33.9212Z" fill="#FED843"/>
<path d="M27.1094 31.6318H25V33.9212H27.1094C27.6923 33.9212 28.1641 33.4092 28.1641 32.7765C28.1641 32.1438 27.6923 31.6318 27.1094 31.6318Z" fill="#FABE2C"/>
</svg>
