<svg width="38" height="38" viewBox="0 0 38 38" fill="none" xmlns="http://www.w3.org/2000/svg">
<g clip-path="url(#clip0_149_4659)">
<path d="M17.4762 28.4103L11.3509 26.292L9.99945 26.4297L7.07872 34.8213C6.98565 35.0885 7.20222 35.3619 7.48373 35.3324L11.5779 34.9037C11.6922 34.8917 11.8059 34.9313 11.8882 35.0117L14.8313 37.8898C15.0336 38.0877 15.3731 38.0079 15.4661 37.7406L18.406 29.2941L17.4762 28.4103Z" fill="#98DB7C"/>
<path d="M18.406 29.294L19 27.5874L10.5918 24.728L9.99951 26.4296C12.3871 28.1333 15.2781 29.1763 18.406 29.294Z" fill="#82D361"/>
<path d="M20.5238 28.4103L26.6491 26.292L28.0006 26.4297L30.9214 34.8213C31.0144 35.0885 30.7979 35.3619 30.5164 35.3324L26.4222 34.9037C26.3079 34.8917 26.1942 34.9313 26.112 35.0117L23.1688 37.8898C22.9665 38.0877 22.6271 38.0079 22.5341 37.7406L19.5942 29.2941L20.5238 28.4103Z" fill="#98DB7C"/>
<path d="M19.594 29.294L19 27.5874L27.4082 24.728L28.0005 26.4296C25.6129 28.1333 22.7219 29.1763 19.594 29.294Z" fill="#82D361"/>
<path d="M19 26.677C5.22351 26.677 5.21208 13.3288 5.22351 13.0985C5.58562 5.80346 11.6151 0 19 0C26.38 0 32.4063 5.79574 32.7757 13.0839C32.7877 13.319 32.7757 26.677 19 26.677Z" fill="#E0E0E0"/>
<path d="M19 26.1969C11.6151 26.1969 5.58585 20.3934 5.22367 13.0984C5.21224 13.3287 5.2063 13.5605 5.2063 13.7936C5.2063 21.4116 11.382 27.5873 19 27.5873C26.618 27.5873 32.7937 21.4116 32.7937 13.7936C32.7937 13.5604 32.7878 13.3287 32.7763 13.0984C32.4142 20.3934 26.3849 26.1969 19 26.1969Z" fill="#CECECE"/>
<path d="M19 23.7968C8.1335 23.7968 8.14085 13.3284 8.15539 13.0985C8.51394 7.42104 13.2322 2.92725 19 2.92725C24.7679 2.92725 29.4861 7.42104 29.8446 13.0985C29.8592 13.3284 29.8446 23.7968 19 23.7968Z" fill="#9E9E9E"/>
<path d="M19 23.2696C13.2322 23.2696 8.51482 18.7757 8.15627 13.0984C8.14172 13.3283 8.13348 13.56 8.13348 13.7936C8.13348 19.795 12.9986 24.6601 19 24.6601C25.0014 24.6601 29.8665 19.795 29.8665 13.7936C29.8665 13.56 29.8583 13.3283 29.8437 13.0984C29.4852 18.7757 24.7678 23.2696 19 23.2696Z" fill="#898989"/>
<path d="M22.128 20.2484H15.8994C15.145 20.2484 14.5625 18.9351 14.6192 18.635C14.7768 17.8015 15.1477 17.0161 15.7014 16.3616L20.084 11.182C20.494 10.6974 20.3111 10.1752 20.2452 10.0266C20.1651 9.846 19.9161 9.42377 19.336 9.40417C19.3192 9.40358 19.3018 9.40328 19.2843 9.40328C18.4695 9.40328 17.8066 10.0662 17.8066 10.8811C17.8066 11.6355 17.195 12.2471 16.4406 12.2471C15.6861 12.2471 15.0745 11.6356 15.0745 10.8811C15.0745 8.55979 16.963 6.67114 19.2843 6.67114C19.3324 6.67114 19.3802 6.67196 19.4277 6.67359C20.8802 6.72258 22.1502 7.58307 22.7427 8.91908C23.344 10.2751 23.1244 11.8184 22.1696 12.9468L17.7871 18.1264C17.771 18.1454 17.7552 18.1647 17.7398 18.1843H22.1281C22.6283 18.1843 23.0658 18.4532 23.3038 18.8544C23.4246 19.0582 22.8825 20.2484 22.128 20.2484Z" fill="#E0E0E0"/>
<path d="M22.128 19.5258H15.8995C15.3124 19.5258 14.8133 19.1548 14.6201 18.635C14.5633 18.9352 14.5334 19.2415 14.5334 19.5502C14.5334 20.3047 15.145 20.9163 15.8995 20.9163H22.128C22.8825 20.9163 23.4941 20.3047 23.4941 19.5502C23.4941 19.296 23.4234 19.0588 23.3025 18.855C23.0645 19.2561 22.6283 19.5258 22.128 19.5258Z" fill="#CECECE"/>
</g>
<defs>
<clipPath id="clip0_149_4659">
<rect width="38" height="38" fill="white"/>
</clipPath>
</defs>
</svg>
