<svg width="38" height="38" viewBox="0 0 38 38" fill="none" xmlns="http://www.w3.org/2000/svg">
<g clip-path="url(#clip0_149_4681)">
<path d="M17.3652 28.3377L11.6692 26.439L9.99945 26.4297L7.07872 34.8212C6.98565 35.0885 7.20222 35.3618 7.48373 35.3323L11.5779 34.9036C11.6922 34.8917 11.8059 34.9312 11.8882 35.0116L14.8313 37.8897C15.0336 38.0876 15.3731 38.0078 15.4661 37.7406L18.406 29.2941L17.3652 28.3377Z" fill="#0083FD"/>
<path d="M18.406 29.294L19 27.5874L10.5918 24.728L9.99951 26.4296C12.3871 28.1333 15.2781 29.1763 18.406 29.294Z" fill="#0072FC"/>
<path d="M20.6348 28.3377L26.3308 26.439L28.0006 26.4297L30.9214 34.8213C31.0144 35.0886 30.7979 35.3619 30.5164 35.3324L26.4222 34.9037C26.3079 34.8917 26.1942 34.9313 26.112 35.0117L23.1688 37.8898C22.9665 38.0877 22.6271 38.0079 22.5341 37.7406L19.5942 29.2942L20.6348 28.3377Z" fill="#0083FD"/>
<path d="M19.594 29.294L19 27.5874L27.4082 24.728L28.0005 26.4296C25.6129 28.1333 22.7219 29.1763 19.594 29.294Z" fill="#0072FC"/>
<path d="M19 26.4297C5.22351 26.4297 5.21208 13.3288 5.22351 13.0985C5.58562 5.80346 11.6151 0 19 0C26.3849 0 32.4144 5.80346 32.7765 13.0985C32.7879 13.3288 32.7765 26.4297 19 26.4297Z" fill="#FF9838"/>
<path d="M19 26.1968C11.6151 26.1968 5.58585 20.3933 5.22367 13.0984C5.21224 13.3287 5.2063 13.5605 5.2063 13.7936C5.2063 21.4116 11.382 27.5873 19 27.5873C26.618 27.5873 32.7937 21.4116 32.7937 13.7936C32.7937 13.5605 32.7878 13.3287 32.7763 13.0984C32.4142 20.3933 26.3849 26.1968 19 26.1968Z" fill="#FF8709"/>
<path d="M29.8665 13.7938C29.8665 18.4468 25.0014 23.9923 19 23.9923C12.9986 23.9923 8.13348 18.1417 8.13348 13.7938C8.13348 13.5602 8.14083 13.3284 8.15538 13.0985C8.51386 7.42104 13.2322 2.92725 19 2.92725C24.7678 2.92725 29.4861 7.42104 29.8446 13.0985C29.8592 13.3284 29.8665 13.5602 29.8665 13.7938Z" fill="#CE7430"/>
<path d="M19 23.2696C13.2322 23.2696 8.51482 18.7757 8.15627 13.0984C8.14172 13.3283 8.13348 13.56 8.13348 13.7936C8.13348 19.795 12.9986 24.6601 19 24.6601C25.0014 24.6601 29.8665 19.795 29.8665 13.7936C29.8665 13.56 29.8583 13.3283 29.8437 13.0984C29.4852 18.7757 24.7678 23.2696 19 23.2696Z" fill="#BC672E"/>
<path d="M19.0137 20.2483C16.6734 20.2483 15.1843 18.635 14.8976 16.7209C14.8716 16.5468 14.8634 16.1731 14.8634 16.1731C15.0626 15.6653 15.5571 15.3058 16.1355 15.3058C16.8899 15.3058 17.5015 15.9174 17.5015 16.6719C17.5015 17.5057 18.1799 18.1841 19.0137 18.1841C19.8476 18.1841 20.526 17.5057 20.526 16.6719C20.526 16.4212 20.4647 16.1846 20.3563 15.9762C20.3563 15.9762 20.2537 14.688 19.0869 14.688C17.9165 14.688 17.8381 13.0977 17.8381 13.0977C18.0761 12.6965 18.5136 12.4276 19.0138 12.4276C19.8477 12.4276 20.5261 11.7493 20.5261 10.9154C20.5261 10.0816 19.8477 9.40321 19.0138 9.40321C18.18 9.40321 17.5016 10.0816 17.5016 10.9154C17.5016 11.6699 16.89 12.2815 16.1355 12.2815C15.3811 12.2815 14.7695 11.6699 14.7695 10.9154C14.7695 8.57515 16.6735 6.67114 19.0137 6.67114C21.3541 6.67114 23.2581 8.57515 23.2581 10.9154C23.2581 12.0251 22.8301 13.0366 22.1304 13.7937C22.681 14.3894 23.0633 15.1425 23.2013 15.9771C23.2013 15.9771 23.2055 16.4352 23.1658 16.6685C22.8272 18.6592 21.3541 20.2483 19.0137 20.2483Z" fill="#FFAA5C"/>
<path d="M19.0138 13.7692C18.5135 13.7692 18.0773 13.4995 17.8394 13.0984C17.7184 13.3022 17.6478 13.5394 17.6478 13.7936C17.6478 14.5481 18.2593 15.1597 19.0138 15.1597C19.597 15.1597 20.1031 15.492 20.3553 15.9767C20.4638 15.7683 20.5261 15.5322 20.5261 15.2815C20.526 14.4475 19.8476 13.7692 19.0138 13.7692Z" fill="#EA9957"/>
<path d="M19.0138 19.5258C16.9795 19.5258 15.2756 18.0869 14.8646 16.1736C14.8039 16.3281 14.7694 16.4959 14.7694 16.672C14.7694 19.0123 16.6734 20.9163 19.0138 20.9163C21.3541 20.9163 23.2581 19.0123 23.2581 16.672C23.2581 16.4353 23.2375 16.2035 23.2001 15.9773C22.867 17.9876 21.1171 19.5258 19.0138 19.5258Z" fill="#EA9957"/>
</g>
<defs>
<clipPath id="clip0_149_4681">
<rect width="38" height="38" fill="white"/>
</clipPath>
</defs>
</svg>
