<svg width="20" height="20" viewBox="0 0 20 20" fill="none" xmlns="http://www.w3.org/2000/svg">
<path fill-rule="evenodd" clip-rule="evenodd" d="M8 14.5C11.5899 14.5 14.5 11.5899 14.5 8C14.5 4.41015 11.5899 1.5 8 1.5C4.41015 1.5 1.5 4.41015 1.5 8C1.5 11.5899 4.41015 14.5 8 14.5ZM8 16C12.4183 16 16 12.4183 16 8C16 3.58172 12.4183 0 8 0C3.58172 0 0 3.58172 0 8C0 12.4183 3.58172 16 8 16Z" fill="#212123"/>
<path fill-rule="evenodd" clip-rule="evenodd" d="M13.0232 13.3052C13.3161 13.0123 13.791 13.0123 14.0839 13.3052L19.0337 18.255C19.3265 18.5479 19.3265 19.0228 19.0337 19.3156C18.7408 19.6085 18.2659 19.6085 17.973 19.3156L13.0232 14.3659C12.7304 14.073 12.7304 13.5981 13.0232 13.3052Z" fill="#212123"/>
</svg>
