<svg width="50" height="41" viewBox="0 0 50 41" fill="none" xmlns="http://www.w3.org/2000/svg">
<path d="M41.0766 9.44661C41.9589 9.95954 42.5021 10.9113 42.5 11.9408L42.4826 20.5L42.5 29.0592C42.5021 30.0887 41.9589 31.0405 41.0766 31.5534L33.7413 35.8178L26.4234 40.1126C25.5431 40.6291 24.4569 40.6291 23.5766 40.1126L16.2587 35.8178L8.92337 31.5534C8.04106 31.0405 7.49792 30.0887 7.50001 29.0592L7.51735 20.5L7.50001 11.9408C7.49792 10.9113 8.04106 9.95954 8.92337 9.44661L16.2587 5.18223L23.5766 0.887439C24.4569 0.370854 25.5431 0.370854 26.4234 0.887439L33.7413 5.18223L41.0766 9.44661Z" fill="#C9C5BF"/>
<path d="M37.8854 11.2403C38.7677 11.7532 39.3108 12.705 39.3088 13.7345L39.295 20.5L39.3088 27.2655C39.3108 28.295 38.7677 29.2467 37.8854 29.7597L32.0873 33.1304L26.3029 36.5252C25.4227 37.0418 24.3364 37.0418 23.4562 36.5252L17.6718 33.1304L11.8737 29.7597C10.9914 29.2467 10.4482 28.295 10.4503 27.2655L10.464 20.5L10.4503 13.7345C10.4482 12.705 10.9914 11.7532 11.8737 11.2403L17.6718 7.86952L23.4562 4.47476C24.3364 3.95817 25.4227 3.95817 26.3029 4.47476L32.0873 7.86952L37.8854 11.2403Z" fill="#8A847B" fill-opacity="0.98"/>
<path fill-rule="evenodd" clip-rule="evenodd" d="M38.9405 20.4992L38.9542 13.7337C38.956 12.8329 38.4808 12.0001 37.7087 11.5513L31.9094 8.17983L26.125 4.78506C25.3548 4.33305 24.4043 4.33305 23.6341 4.78506L17.8484 8.18057L12.0503 11.5513C11.2783 12.0001 10.8031 12.8329 10.8049 13.7337L10.8186 20.5007L10.8049 27.2662C10.8031 28.167 11.2783 28.9998 12.0503 29.4486L17.8497 32.8201L23.6341 36.2149C24.4043 36.6669 25.3548 36.6669 26.125 36.2149L31.9106 32.8194L37.7087 29.4486C38.4808 28.9998 38.956 28.167 38.9542 27.2662L38.9405 20.4992ZM39.3088 13.7345C39.3108 12.705 38.7677 11.7532 37.8854 11.2403L32.0873 7.86952L26.3029 4.47476C25.4227 3.95817 24.3364 3.95817 23.4562 4.47476L17.6718 7.86952L11.8737 11.2403C10.9914 11.7532 10.4482 12.705 10.4503 13.7345L10.464 20.5L10.4503 27.2655C10.4482 28.295 10.9914 29.2467 11.8737 29.7597L17.6718 33.1304L23.4562 36.5252C24.3364 37.0418 25.4227 37.0418 26.3029 36.5252L32.0873 33.1304L37.8854 29.7597C38.7677 29.2467 39.3108 28.295 39.3088 27.2655L39.295 20.5L39.3088 13.7345Z" fill="#807B74"/>
<path d="M26.4045 22.5461L21.9045 30.3404L18.4404 28.3404L22.9404 20.5461" fill="#B8B0AC"/>
<path d="M24.2395 21.2961L19.7395 29.0904L18.4404 28.3404L22.9404 20.5461" fill="#D9D1CD"/>
<path d="M18.6384 18.8593L30.0163 25.4283L34.5162 17.6342L23.1383 11.0652L18.6384 18.8593Z" fill="#C6BAA7"/>
<path d="M31.1343 25.6849L30.0166 25.4284L34.5166 17.6342L35.3057 18.4395C35.4527 18.5895 35.4719 18.841 35.3523 19.0482L31.6746 25.4183C31.5571 25.6217 31.3355 25.731 31.1343 25.6849Z" fill="#BCAD96"/>
<path d="M22.0206 10.8086L23.1384 11.065L18.6384 18.8593L17.8492 18.0539C17.7023 17.9039 17.683 17.6524 17.8027 17.4452L21.4805 11.0751C21.5979 10.8718 21.8194 10.7624 22.0206 10.8086Z" fill="#D4CABB"/>
<path d="M27.7916 24.1438L26.9562 23.6544L25.3634 12.3496L26.1978 12.8313L27.7916 24.1438Z" fill="#DFD8CD"/>
<path d="M26.336 19.2527L27.0613 18.9599L26.8272 17.2992L26.102 17.5919L26.336 19.2527Z" fill="#D4CABB"/>
<path d="M21.7009 20.6203L20.8665 20.1385L31.4531 15.8655L32.2875 16.3472L21.7009 20.6203Z" fill="#DFD8CD"/>
<path d="M21.9287 18.4495C21.6526 18.9278 21.041 19.0916 20.5627 18.8155C20.0844 18.5393 19.9205 17.9278 20.1967 17.4495C20.4728 16.9712 21.0844 16.8073 21.5627 17.0834C22.041 17.3596 22.2049 17.9712 21.9287 18.4495Z" fill="#9C8F7C"/>
<path d="M32.5889 19.9854C32.3128 20.4637 31.7012 20.6276 31.2229 20.3514C30.7446 20.0753 30.5807 19.4637 30.8569 18.9854C31.133 18.5071 31.7446 18.3432 32.2229 18.6194C32.7012 18.8955 32.8651 19.5071 32.5889 19.9854Z" fill="#9C8F7C"/>
<path d="M24.0448 16.7845C23.9067 17.0237 23.6009 17.1056 23.3618 16.9675C23.1226 16.8295 23.0407 16.5237 23.1787 16.2845C23.3168 16.0454 23.6226 15.9634 23.8618 16.1015C24.1009 16.2396 24.1828 16.5454 24.0448 16.7845Z" fill="#9C8F7C"/>
</svg>
