<svg width="50" height="43" viewBox="0 0 50 43" fill="none" xmlns="http://www.w3.org/2000/svg">
<path d="M41.4953 10.06C42.428 10.5858 43.0022 11.5614 43 12.6166L42.9817 21.3898L43 30.1629C43.0022 31.2182 42.428 32.1937 41.4953 32.7195L33.7408 37.0905L26.0047 41.4926C25.0742 42.0221 23.9258 42.0221 22.9953 41.4926L15.2592 37.0905L7.5047 32.7195C6.57198 32.1937 5.9978 31.2182 6.00001 30.1629L6.01835 21.3898L6.00001 12.6166C5.9978 11.5614 6.57198 10.5858 7.5047 10.06L15.2592 5.68905L22.9953 1.2869C23.9258 0.757395 25.0742 0.757395 26.0047 1.2869L33.7408 5.68905L41.4953 10.06Z" fill="#E3EFF2"/>
<path d="M38.1217 11.8985C39.0544 12.4243 39.6286 13.3998 39.6264 14.4551L39.6119 21.3897L39.6264 28.3244C39.6286 29.3796 39.0544 30.3552 38.1217 30.8809L31.9923 34.3359L25.8773 37.8156C24.9468 38.3451 23.7985 38.3451 22.868 37.8156L16.753 34.3359L10.6236 30.8809C9.69086 30.3552 9.11669 29.3796 9.11889 28.3244L9.13339 21.3897L9.11889 14.4551C9.11669 13.3998 9.69087 12.4243 10.6236 11.8985L16.753 8.44353L22.868 4.9639C23.7985 4.4344 24.9468 4.4344 25.8773 4.9639L31.9923 8.44353L38.1217 11.8985Z" fill="#E3EFF2"/>
<path fill-rule="evenodd" clip-rule="evenodd" d="M39.2371 21.389L39.2516 14.4543C39.2535 13.531 38.7511 12.6774 37.935 12.2174L31.8042 8.7616L25.6893 5.28196C24.8751 4.81865 23.8702 4.81865 23.056 5.28196L16.9398 8.76235L10.8103 12.2173C9.99421 12.6774 9.49181 13.531 9.49374 14.4543L9.50823 21.3905L9.49374 28.3251C9.4918 29.2485 9.99421 30.1021 10.8103 30.5621L16.9411 34.0179L23.056 37.4975C23.8702 37.9608 24.8751 37.9608 25.6893 37.4975L31.8055 34.0171L37.935 30.5621C38.7511 30.1021 39.2535 29.2485 39.2516 28.3251L39.2371 21.389ZM39.6264 14.4551C39.6286 13.3998 39.0544 12.4243 38.1217 11.8985L31.9923 8.44353L25.8773 4.9639C24.9468 4.4344 23.7985 4.4344 22.868 4.9639L16.753 8.44353L10.6236 11.8985C9.69087 12.4243 9.11669 13.3998 9.11889 14.4551L9.13339 21.3897L9.11889 28.3244C9.11669 29.3796 9.69086 30.3552 10.6236 30.8809L16.753 34.3359L22.868 37.8156C23.7985 38.3451 24.9468 38.3451 25.8773 37.8156L31.9923 34.3359L38.1217 30.8809C39.0544 30.3552 39.6286 29.3796 39.6264 28.3244L39.6119 21.3897L39.6264 14.4551Z" fill="#8B969C"/>
<path d="M39.5766 10.2231C40.4589 10.7232 41.0021 11.6512 41 12.6549L40.9826 21.0001L41 29.3453C41.0021 30.3491 40.4589 31.2771 39.5766 31.7772L32.2413 35.935L24.9234 40.1224C24.0431 40.626 22.9569 40.626 22.0766 40.1224L14 37.0001L8 33.0001C6.00001 32.0001 6 31.0001 6.00001 29.3453L6.01735 21.0001L6.00001 12.6549C6 11.5001 6.61769 10.5002 7.5 10.0001L14.5 6.00008L22.1341 1.71579C23.0143 1.21212 24.1006 1.21212 24.9808 1.71579L32.2413 6.06529L39.5766 10.2231Z" fill="#A9B9BF"/>
<path d="M36.3854 11.9719C37.2677 12.472 37.8108 13.4 37.8088 14.4037L37.795 21.0001L37.8088 27.5964C37.8108 28.6002 37.2677 29.5282 36.3854 30.0283L30.5873 33.3148L24.8029 36.6247C23.9227 37.1283 22.8364 37.1283 21.9562 36.6247L16.1718 33.3148L10.3737 30.0283C9.49136 29.5282 8.94822 28.6002 8.9503 27.5964L8.96402 21.0001L8.9503 14.4037C8.94822 13.3999 9.49136 12.472 10.3737 11.9719L16.1718 8.6854L21.9562 5.37551C22.8364 4.87184 23.9227 4.87184 24.8029 5.37551L30.5873 8.6854L36.3854 11.9719Z" fill="#A9B9BF"/>
<path fill-rule="evenodd" clip-rule="evenodd" d="M37.4405 20.9994L37.4542 14.403C37.456 13.5247 36.9808 12.7127 36.2087 12.2751L30.4094 8.98796L24.625 5.67806C23.8548 5.23735 22.9043 5.23735 22.1341 5.67806L16.3484 8.98867L10.5503 12.2751C9.77831 12.7127 9.30306 13.5247 9.30488 14.403L9.3186 21.0008L9.30488 27.5972C9.30306 28.4755 9.77831 29.2874 10.5503 29.725L16.3497 33.0122L22.1341 36.3221C22.9043 36.7628 23.8548 36.7628 24.625 36.3221L30.4106 33.0115L36.2087 29.725C36.9808 29.2874 37.456 28.4755 37.4542 27.5972L37.4405 20.9994ZM37.8088 14.4037C37.8108 13.4 37.2677 12.472 36.3854 11.9719L30.5873 8.6854L24.8029 5.37551C23.9227 4.87184 22.8364 4.87184 21.9562 5.37551L16.1718 8.6854L10.3737 11.9719C9.49136 12.472 8.94822 13.3999 8.9503 14.4037L8.96402 21.0001L8.9503 27.5964C8.94822 28.6002 9.49136 29.5282 10.3737 30.0283L16.1718 33.3148L21.9562 36.6247C22.8364 37.1283 23.9227 37.1283 24.8029 36.6247L30.5873 33.3148L36.3854 30.0283C37.2677 29.5282 37.8108 28.6002 37.8088 27.5964L37.795 21.0001L37.8088 14.4037Z" fill="#8B969C"/>
<path d="M40.5766 10.8364C41.4589 11.3493 42.0021 12.3011 42 13.3306L41.9826 21.8898L42 30.4489C42.0021 31.4785 41.4589 32.4302 40.5766 32.9432L33.2413 37.2075L25.9234 41.5023C25.0431 42.0189 23.9569 42.0189 23.0766 41.5023L15.7587 37.2075L8.42337 32.9432C7.54106 32.4302 6.99792 31.4785 7.00001 30.4489L7.01735 21.8898L7.00001 13.3306C6.99792 12.3011 7.54106 11.3493 8.42337 10.8364L15.7587 6.572L23.0766 2.27721C23.9569 1.76062 25.0431 1.76062 25.9234 2.27721L33.2413 6.572L40.5766 10.8364Z" fill="#CED8DA"/>
<path d="M37.3854 12.63C38.2677 13.143 38.8108 14.0947 38.8088 15.1242L38.795 21.8897L38.8088 28.6552C38.8108 29.6847 38.2677 30.6365 37.3854 31.1494L31.5873 34.5202L25.8029 37.9149C24.9227 38.4315 23.8364 38.4315 22.9562 37.9149L17.1718 34.5202L11.3737 31.1494C10.4914 30.6365 9.94822 29.6847 9.9503 28.6552L9.96402 21.8897L9.9503 15.1242C9.94822 14.0947 10.4914 13.143 11.3737 12.63L17.1718 9.25929L22.9562 5.86453C23.8364 5.34794 24.9227 5.34794 25.8029 5.86453L31.5873 9.25929L37.3854 12.63Z" fill="#767F84"/>
<path fill-rule="evenodd" clip-rule="evenodd" d="M38.4405 21.889L38.4542 15.1235C38.456 14.2227 37.9808 13.3899 37.2087 12.9411L31.4094 9.5696L25.625 6.17483C24.8548 5.72282 23.9043 5.72282 23.1341 6.17483L17.3484 9.57034L11.5503 12.9411C10.7783 13.3899 10.3031 14.2227 10.3049 15.1235L10.3186 21.8905L10.3049 28.656C10.3031 29.5568 10.7783 30.3896 11.5503 30.8384L17.3497 34.2099L23.1341 37.6046C23.9043 38.0567 24.8548 38.0566 25.625 37.6046L31.4106 34.2091L37.2087 30.8384C37.9808 30.3896 38.456 29.5568 38.4542 28.656L38.4405 21.889ZM38.8088 15.1242C38.8108 14.0947 38.2677 13.143 37.3854 12.63L31.5873 9.25929L25.8029 5.86453C24.9227 5.34794 23.8364 5.34794 22.9562 5.86453L17.1718 9.25929L11.3737 12.63C10.4914 13.143 9.94822 14.0947 9.9503 15.1242L9.96402 21.8897L9.9503 28.6552C9.94822 29.6847 10.4914 30.6365 11.3737 31.1494L17.1718 34.5202L22.9562 37.9149C23.8364 38.4315 24.9227 38.4315 25.8029 37.9149L31.5873 34.5202L37.3854 31.1494C38.2677 30.6365 38.8108 29.6847 38.8088 28.6552L38.795 21.8897L38.8088 15.1242Z" fill="#747E82"/>
<path d="M48.1181 33.6382C48.2506 33.2376 47.8129 32.8804 47.2935 32.9634C45.9186 33.1834 43.498 33.5519 41.393 33.7765C39.087 34.0225 36.5152 34.1645 35.3019 34.2229C34.9085 34.2419 34.5919 34.4993 34.5928 34.8054C34.5949 35.4541 34.6141 36.5429 34.7098 37.332C34.8101 38.1581 35.0708 39.2867 35.2222 39.9048C35.2864 40.1668 35.5838 40.345 35.9293 40.3287C37.0896 40.2739 39.753 40.1308 42.1333 39.8769C44.3006 39.6457 46.8024 39.2618 48.153 39.0447C48.6398 38.9665 48.8989 38.5417 48.6639 38.2122L47.3933 36.4308C47.3061 36.3085 47.2832 36.163 47.3293 36.0236L48.1181 33.6382Z" fill="#9EA6A8"/>
<path d="M48.358 32.8002C48.4924 32.3994 48.0542 32.0399 47.5336 32.122C46.1417 32.3417 43.6801 32.7117 41.5402 32.9368C39.195 33.1836 36.5786 33.3257 35.3533 33.3838C34.9604 33.4024 34.6449 33.6587 34.6458 33.9642C34.6478 34.6127 34.6673 35.7026 34.7644 36.4923C34.8661 37.3186 35.1305 38.4474 35.284 39.0654C35.349 39.3272 35.6468 39.5055 35.9923 39.4894C37.1641 39.4349 39.8717 39.2918 42.2908 39.0372C44.4922 38.8056 47.0339 38.4208 48.4014 38.2039C48.8901 38.1264 49.1486 37.6998 48.91 37.3698L47.6253 35.5933C47.536 35.4698 47.5125 35.3223 47.5597 35.1814L48.358 32.8002Z" fill="#E3EFF2"/>
<path d="M48.1055 33.1517C48.2088 32.8507 47.8802 32.5794 47.4888 32.6414C46.1901 32.8473 43.6095 33.2394 41.385 33.4734C38.9844 33.7261 36.2932 33.8689 35.1791 33.9213C34.8852 33.9351 34.6496 34.1262 34.6491 34.3548C34.6478 34.9555 34.6602 36.0908 34.7596 36.8986C34.8626 37.736 35.1423 38.8972 35.2856 39.4627C35.3354 39.6588 35.5583 39.7917 35.8174 39.7797C36.8762 39.7306 39.6435 39.587 42.1053 39.328C44.3809 39.0885 47.029 38.6838 48.2964 38.4821C48.6647 38.4235 48.8573 38.1014 48.6753 37.8537L47.2948 35.9744C47.2259 35.8806 47.2079 35.768 47.2447 35.6608L48.1055 33.1517Z" fill="#CED8DA"/>
<path d="M1.88187 33.6382C1.74939 33.2376 2.18713 32.8804 2.70653 32.9634C4.0814 33.1834 6.50198 33.5519 8.60701 33.7765C10.913 34.0225 13.4848 34.1645 14.6981 34.2229C15.0915 34.2419 15.4081 34.4993 15.4072 34.8054C15.4051 35.4541 15.3859 36.5429 15.2902 37.332C15.1899 38.1581 14.9292 39.2867 14.7778 39.9048C14.7136 40.1668 14.4162 40.345 14.0707 40.3287C12.9104 40.2739 10.247 40.1308 7.86669 39.8769C5.69938 39.6457 3.19758 39.2618 1.84697 39.0447C1.36022 38.9665 1.10105 38.5417 1.33606 38.2122L2.60666 36.4308C2.69387 36.3085 2.71675 36.163 2.67067 36.0236L1.88187 33.6382Z" fill="#9EA6A8"/>
<path d="M1.64196 32.8002C1.50761 32.3994 1.94582 32.0399 2.46638 32.122C3.85834 32.3417 6.31987 32.7117 8.45978 32.9368C10.805 33.1836 13.4214 33.3257 14.6467 33.3838C15.0396 33.4024 15.3551 33.6587 15.3542 33.9642C15.3522 34.6127 15.3327 35.7026 15.2356 36.4923C15.1339 37.3186 14.8695 38.4474 14.716 39.0654C14.651 39.3272 14.3532 39.5055 14.0077 39.4894C12.8359 39.4349 10.1283 39.2918 7.70919 39.0372C5.50784 38.8056 2.96613 38.4208 1.59857 38.2039C1.10989 38.1264 0.851391 37.6998 1.09 37.3698L2.3747 35.5933C2.46404 35.4698 2.48752 35.3223 2.44029 35.1814L1.64196 32.8002Z" fill="#E3EFF2"/>
<path d="M1.89447 33.1517C1.79122 32.8507 2.11983 32.5794 2.51121 32.6414C3.8099 32.8473 6.39047 33.2394 8.61499 33.4734C11.0156 33.7261 13.7068 33.8689 14.8209 33.9213C15.1148 33.9351 15.3504 34.1262 15.3509 34.3548C15.3522 34.9555 15.3398 36.0908 15.2404 36.8986C15.1374 37.736 14.8577 38.8972 14.7144 39.4627C14.6646 39.6588 14.4417 39.7917 14.1826 39.7797C13.1238 39.7306 10.3565 39.587 7.89466 39.328C5.61913 39.0885 2.97105 38.6838 1.70359 38.4821C1.33533 38.4235 1.14275 38.1014 1.3247 37.8537L2.70521 35.9744C2.77414 35.8806 2.79211 35.768 2.75531 35.6608L1.89447 33.1517Z" fill="#CED8DA"/>
<path d="M9.28745 35.5732C9.28745 34.7335 10.2373 34.0807 11.3205 34.1703C14.3914 34.4246 20.3033 34.8632 24.5366 34.8632C28.7699 34.8632 34.6818 34.4246 37.7527 34.1703C38.8359 34.0807 39.7858 34.7335 39.7858 35.5732V40.0008C39.7858 40.7085 39.1025 41.3038 38.19 41.3808C35.2751 41.6268 28.9808 42.1102 24.5366 42.1102C20.0924 42.1102 13.7982 41.6268 10.8832 41.3808C9.97071 41.3038 9.28745 40.7085 9.28745 40.0008V35.5732Z" fill="#9EA6A8"/>
<path d="M9.90986 35.5814C9.90986 34.7387 10.8653 34.0849 11.9517 34.1782C14.922 34.4335 20.5179 34.8632 24.5366 34.8632C28.5553 34.8632 34.1512 34.4335 37.1215 34.1782C38.2079 34.0849 39.1633 34.7387 39.1633 35.5814V40.0072C39.1633 40.7121 38.4865 41.3059 37.578 41.3856C34.7586 41.633 28.7718 42.1102 24.5366 42.1102C20.3014 42.1102 14.3146 41.633 11.4952 41.3856C10.5867 41.3059 9.90986 40.7121 9.90986 40.0072V35.5814Z" fill="#E3EFF2"/>
<path d="M9.90986 35.8456C9.90986 35.1755 10.6644 34.6539 11.5288 34.7241C14.3619 34.9542 20.3182 35.393 24.5366 35.393C28.755 35.393 34.7113 34.9542 37.5444 34.7241C38.4088 34.6539 39.1633 35.1755 39.1633 35.8456V40.3083C39.1633 40.8762 38.6161 41.3531 37.8837 41.4135C35.2134 41.6339 28.9318 42.1102 24.5366 42.1102C20.1415 42.1102 13.8598 41.6339 11.1895 41.4135C10.4571 41.3531 9.90986 40.8762 9.90986 40.3083V35.8456Z" fill="#CED8DA"/>
<path d="M26.368 23.2513V31.4763H22.4719V23.2513" fill="#EAF7FA"/>
<path d="M24.2035 23.2513V31.4763H22.4719V23.2513" fill="#CAD4D6"/>
<path d="M26.8009 31.4763H22.039V33.2079H26.8009V31.4763Z" fill="#B6C7CD"/>
<path d="M23.7706 31.4763H22.039V33.2079H23.7706V31.4763Z" fill="#8D9FA6"/>
<path d="M33.7126 15.2687L31.9906 14.1102H16.9178L15.1958 15.2687V22.3917L16.9178 23.5502H31.9906L33.7126 22.3917V15.2687Z" fill="#CAD4D6"/>
<path d="M31.8388 14.1102H17.0112V23.5292H31.8388V14.1102Z" fill="#B6C7CD"/>
<path d="M27.1236 14.1102L17.7046 23.5292H17.0112L17.0114 22.5319L25.4325 14.1102H27.1236Z" fill="#EAF7FA"/>
<path d="M31.8388 14.1102L31.839 15.5858L23.8955 23.5292H19.5616L28.9806 14.1102H31.8388Z" fill="#EAF7FA"/>
</svg>
