<svg width="current" height="current" viewBox="0 0 89 90" fill="none" xmlns="http://www.w3.org/2000/svg">
<rect x="64.368" y="16.9514" width="11.3333" height="68" rx="5.66667" transform="rotate(45 64.368 16.9514)" fill="#FFDD33"/>
<mask id="mask0_205_9814" style="mask-type:alpha" maskUnits="userSpaceOnUse" x="18" y="19" width="53" height="52">
<rect x="64.368" y="16.9514" width="11.3333" height="68" rx="5.66667" transform="rotate(45 64.368 16.9514)" fill="#FFDD33"/>
</mask>
<g mask="url(#mask0_205_9814)">
<rect x="64.368" y="16.9514" width="5.66667" height="68" transform="rotate(45 64.368 16.9514)" fill="#FFE97D"/>
</g>
<rect x="72.382" y="24.9653" width="11.3333" height="28.3333" rx="5.66667" transform="rotate(45 72.382 24.9653)" fill="#FF4D88"/>
<mask id="mask1_205_9814" style="mask-type:alpha" maskUnits="userSpaceOnUse" x="54" y="27" width="25" height="24">
<path d="M68.375 28.9723C70.588 26.7593 74.1759 26.7593 76.3889 28.9723C78.6019 31.1852 78.6019 34.7732 76.3889 36.9861L64.3681 49.007C62.1551 51.2199 58.5672 51.2199 56.3542 49.007C54.1412 46.794 54.1412 43.2061 56.3542 40.9931L68.375 28.9723Z" fill="#FF4D88"/>
</mask>
<g mask="url(#mask1_205_9814)">
<path d="M76.3889 28.9722L80.3959 32.9791L60.3612 53.0138L56.3542 49.0069L76.3889 28.9722Z" fill="#E62E6B"/>
</g>
<rect x="48.3403" y="0.923584" width="11.3333" height="28.3333" rx="5.66667" transform="rotate(45 48.3403 0.923584)" fill="#FF4D88"/>
<mask id="mask2_205_9814" style="mask-type:alpha" maskUnits="userSpaceOnUse" x="30" y="3" width="25" height="24">
<path d="M44.3334 4.93052C46.5464 2.71755 50.1343 2.71755 52.3473 4.93052C54.5602 7.14349 54.5602 10.7314 52.3473 12.9444L40.3265 24.9652C38.1135 27.1782 34.5255 27.1782 32.3126 24.9652C30.0996 22.7522 30.0996 19.1643 32.3126 16.9513L44.3334 4.93052Z" fill="#FF4D88"/>
</mask>
<g mask="url(#mask2_205_9814)">
<path d="M52.3473 4.93042L56.3542 8.93736L36.3195 28.9721L32.3126 24.9651L52.3473 4.93042Z" fill="#E62E6B"/>
</g>
<rect x="80.3959" y="32.979" width="11.3333" height="28.3333" rx="5.66667" transform="rotate(45 80.3959 32.979)" fill="#FF4D88"/>
<mask id="mask3_205_9814" style="mask-type:alpha" maskUnits="userSpaceOnUse" x="62" y="35" width="25" height="24">
<path d="M76.3889 36.9859C78.6019 34.773 82.1898 34.773 84.4028 36.9859C86.6158 39.1989 86.6158 42.7868 84.4028 44.9998L72.382 57.0206C70.169 59.2336 66.5811 59.2336 64.3681 57.0206C62.1551 54.8077 62.1551 51.2197 64.3681 49.0068L76.3889 36.9859Z" fill="#FF4D88"/>
</mask>
<g mask="url(#mask3_205_9814)">
<path d="M84.4028 36.9858L88.4098 40.9928L68.3751 61.0275L64.3681 57.0205L84.4028 36.9858Z" fill="#E62E6B"/>
</g>
<rect x="56.3542" y="8.9375" width="11.3333" height="28.3333" rx="5.66667" transform="rotate(45 56.3542 8.9375)" fill="#FF4D88"/>
<mask id="mask4_205_9814" style="mask-type:alpha" maskUnits="userSpaceOnUse" x="38" y="11" width="25" height="24">
<path d="M52.3473 12.9444C54.5603 10.7315 58.1482 10.7315 60.3612 12.9444C62.5742 15.1574 62.5742 18.7453 60.3612 20.9583L48.3404 32.9791C46.1274 35.1921 42.5395 35.1921 40.3265 32.9791C38.1135 30.7662 38.1135 27.1782 40.3265 24.9653L52.3473 12.9444Z" fill="#FF4D88"/>
</mask>
<g mask="url(#mask4_205_9814)">
<path d="M60.3612 12.9443L64.3681 16.9513L44.3335 36.986L40.3265 32.979L60.3612 12.9443Z" fill="#E62E6B"/>
</g>
</svg>
