<svg width="50" height="42" viewBox="0 0 50 42" fill="none" xmlns="http://www.w3.org/2000/svg">
<path d="M42.6089 9.67028C43.5275 10.196 44.093 11.1716 44.0908 12.2268L44.0728 21L44.0908 29.7732C44.093 30.8284 43.5275 31.804 42.6089 32.3297L34.9718 36.7007L27.3528 41.1029C26.4364 41.6324 25.3054 41.6324 24.389 41.1029L16.77 36.7007L9.13288 32.3297C8.21427 31.804 7.64879 30.8284 7.65096 29.7732L7.66902 21L7.65096 12.2268C7.64879 11.1716 8.21427 10.196 9.13288 9.67028L16.77 5.29928L24.389 0.897125C25.3054 0.367625 26.4364 0.367625 27.3528 0.897125L34.9718 5.29928L42.6089 9.67028Z" fill="#F7CCD9"/>
<path d="M39.2864 11.5088C40.205 12.0345 40.7705 13.0101 40.7683 14.0653L40.754 21L40.7683 27.9346C40.7705 28.9899 40.205 29.9654 39.2864 30.4912L33.2498 33.9462L27.2274 37.4258C26.311 37.9553 25.18 37.9553 24.2636 37.4258L18.2412 33.9462L12.2045 30.4912C11.2859 29.9654 10.7205 28.9898 10.7226 27.9346L10.7369 21L10.7226 14.0653C10.7205 13.0101 11.2859 12.0345 12.2045 11.5088L18.2412 8.05376L24.2636 4.57413C25.18 4.04462 26.311 4.04463 27.2274 4.57413L33.2498 8.05376L39.2864 11.5088Z" fill="#F7CCD9"/>
<path fill-rule="evenodd" clip-rule="evenodd" d="M40.3849 20.9992L40.3991 14.0646C40.401 13.1412 39.9062 12.2876 39.1025 11.8276L33.0645 8.37182L27.0422 4.89219C26.2403 4.42888 25.2507 4.42888 24.4488 4.89219L18.4251 8.37258L12.3885 11.8276C11.5847 12.2876 11.0899 13.1412 11.0918 14.0646L11.1061 21.0007L11.0918 27.9354C11.0899 28.8587 11.5847 29.7123 12.3885 30.1723L18.4264 33.6281L24.4488 37.1077C25.2507 37.5711 26.2403 37.5711 27.0422 37.1077L33.0658 33.6273L39.1025 30.1724C39.9062 29.7123 40.4011 28.8587 40.3992 27.9354L40.3849 20.9992ZM40.7683 14.0653C40.7705 13.0101 40.205 12.0345 39.2864 11.5088L33.2498 8.05376L27.2274 4.57413C26.311 4.04463 25.18 4.04462 24.2636 4.57413L18.2412 8.05376L12.2045 11.5088C11.2859 12.0345 10.7205 13.0101 10.7226 14.0653L10.7369 21L10.7226 27.9346C10.7205 28.9898 11.2859 29.9654 12.2045 30.4912L18.2412 33.9462L24.2636 37.4258C25.18 37.9553 26.311 37.9553 27.2274 37.4258L33.2498 33.9462L39.2864 30.4912C40.205 29.9654 40.7705 28.9899 40.7683 27.9346L40.754 21L40.7683 14.0653Z" fill="#B5AC5B"/>
<path d="M40.7193 9.8333C41.5882 10.3334 42.1232 11.2614 42.1211 12.2652L42.104 20.6103L42.1211 28.9555C42.1232 29.9593 41.5883 30.8873 40.7193 31.3874L33.495 35.5452L26.2879 39.7326C25.421 40.2363 24.3511 40.2363 23.4842 39.7326L15.5298 36.6104L9.62068 32.6104C7.65096 31.6104 7.65095 30.6104 7.65096 28.9555L7.66804 20.6104L7.65096 12.2652C7.65095 11.1103 8.2593 10.1104 9.12825 9.61031L16.0223 5.61031L23.5408 1.32602C24.4077 0.822349 25.4775 0.822349 26.3444 1.32602L33.495 5.67552L40.7193 9.8333Z" fill="#D05C86"/>
<path d="M37.5764 11.5821C38.4453 12.0822 38.9802 13.0102 38.9782 14.014L38.9647 20.6103L38.9782 27.2067C38.9802 28.2105 38.4453 29.1384 37.5764 29.6385L31.866 32.925L26.1692 36.2349C25.3023 36.7386 24.2325 36.7386 23.3656 36.2349L17.6687 32.925L11.9584 29.6385C11.0895 29.1384 10.5545 28.2105 10.5566 27.2067L10.5701 20.6103L10.5566 14.014C10.5545 13.0102 11.0895 12.0822 11.9584 11.5821L17.6687 8.29563L23.3656 4.98574C24.2325 4.48207 25.3023 4.48207 26.1692 4.98574L31.866 8.29563L37.5764 11.5821Z" fill="#D05C86"/>
<path fill-rule="evenodd" clip-rule="evenodd" d="M38.6155 20.6096L38.629 14.0132C38.6308 13.1349 38.1627 12.323 37.4024 11.8854L31.6908 8.59818L25.994 5.28829C25.2354 4.84757 24.2993 4.84757 23.5408 5.28829L17.8427 8.5989L12.1324 11.8854C11.3721 12.323 10.904 13.1349 10.9058 14.0132L10.9193 20.611L10.9058 27.2074C10.904 28.0857 11.3721 28.8977 12.1324 29.3353L17.844 32.6224L23.5408 35.9324C24.2993 36.3731 25.2354 36.3731 25.994 35.9324L31.692 32.6217L37.4024 29.3353C38.1627 28.8977 38.6308 28.0857 38.629 27.2074L38.6155 20.6096ZM38.9782 14.014C38.9802 13.0102 38.4453 12.0822 37.5764 11.5821L31.866 8.29563L26.1692 4.98574C25.3023 4.48207 24.2325 4.48207 23.3656 4.98574L17.6687 8.29563L11.9584 11.5821C11.0895 12.0822 10.5545 13.0102 10.5566 14.014L10.5701 20.6103L10.5566 27.2067C10.5545 28.2105 11.0895 29.1384 11.9584 29.6385L17.6687 32.925L23.3656 36.2349C24.2325 36.7386 25.3023 36.7386 26.1692 36.2349L31.866 32.925L37.5764 29.6385C38.4453 29.1384 38.9802 28.2105 38.9782 27.2067L38.9647 20.6103L38.9782 14.014Z" fill="#B5AC5B"/>
<path d="M41.7042 10.4466C42.5731 10.9595 43.108 11.9113 43.106 12.9408L43.0889 21.5L43.106 30.0592C43.108 31.0887 42.5731 32.0405 41.7042 32.5534L34.4799 36.8178L27.2727 41.1126C26.4058 41.6291 25.336 41.6291 24.4691 41.1126L17.2619 36.8178L10.0376 32.5534C9.16869 32.0405 8.63377 31.0887 8.63582 30.0592L8.65291 21.5L8.63582 12.9408C8.63377 11.9113 9.16869 10.9595 10.0376 10.4466L17.2619 6.18223L24.4691 1.88744C25.336 1.37085 26.4058 1.37085 27.2727 1.88744L34.4799 6.18223L41.7042 10.4466Z" fill="#FA88BF"/>
<path d="M38.5612 12.2403C39.4302 12.7532 39.9651 13.705 39.963 14.7345L39.9495 21.5L39.963 28.2655C39.9651 29.295 39.4302 30.2467 38.5612 30.7597L32.8509 34.1304L27.1541 37.5252C26.2872 38.0418 25.2173 38.0418 24.3504 37.5252L18.6536 34.1304L12.9433 30.7597C12.0743 30.2467 11.5394 29.295 11.5415 28.2655L11.555 21.5L11.5415 14.7345C11.5394 13.705 12.0743 12.7532 12.9433 12.2403L18.6536 8.86952L24.3504 5.47476C25.2173 4.95817 26.2872 4.95817 27.1541 5.47476L32.8509 8.86952L38.5612 12.2403Z" fill="#984E69"/>
<path fill-rule="evenodd" clip-rule="evenodd" d="M39.6003 21.4992L39.6138 14.7337C39.6156 13.8329 39.1476 13.0001 38.3872 12.5513L32.6757 9.17983L26.9788 5.78506C26.2203 5.33305 25.2842 5.33305 24.5257 5.78506L18.8276 9.18056L13.1173 12.5513C12.3569 13.0001 11.8889 13.8329 11.8907 14.7337L11.9042 21.5007L11.8907 28.2662C11.8889 29.167 12.3569 29.9998 13.1173 30.4486L18.8288 33.8201L24.5257 37.2149C25.2842 37.6669 26.2203 37.6669 26.9788 37.2149L32.6769 33.8194L38.3872 30.4486C39.1476 29.9998 39.6156 29.167 39.6138 28.2662L39.6003 21.4992ZM39.963 14.7345C39.9651 13.705 39.4302 12.7532 38.5612 12.2403L32.8509 8.86952L27.1541 5.47476C26.2872 4.95817 25.2173 4.95817 24.3504 5.47476L18.6536 8.86952L12.9433 12.2403C12.0743 12.7532 11.5394 13.705 11.5415 14.7345L11.555 21.5L11.5415 28.2655C11.5394 29.295 12.0743 30.2467 12.9433 30.7597L18.6536 34.1304L24.3504 37.5252C25.2173 38.0418 26.2872 38.0418 27.1541 37.5252L32.8509 34.1304L38.5612 30.7597C39.4302 30.2467 39.9651 29.295 39.963 28.2655L39.9495 21.5L39.963 14.7345Z" fill="#9E4158"/>
<path d="M27.5425 23.354L23.526 30.4771L20.2306 28.5291L24.2472 21.406" fill="#FEFEFE"/>
<path d="M25.7118 22.2718L21.6952 29.3949L20.2306 28.5291L24.2472 21.406" fill="#CFE0E0"/>
<path d="M23.8921 30.6936L19.8644 28.3126L19.0189 29.8122L23.0465 32.1932L23.8921 30.6936Z" fill="#FF3C5F"/>
<path d="M37.3812 20.595L36.4904 18.7307L23.7416 11.1943L21.7193 11.3366L18.2409 17.5053L19.1318 19.3696L31.8805 26.9059L33.9028 26.7637L37.3812 20.595Z" fill="#FF989E"/>
<path d="M36.362 18.6548L23.8205 11.241L19.2209 19.3981L31.7624 26.8119L36.362 18.6548Z" fill="#FF3C5F"/>
<path d="M32.3737 16.2972L19.8074 19.7448L19.2209 19.3981L19.7081 18.5345L30.9434 15.4517L32.3737 16.2972Z" fill="#FFD9D9"/>
<path d="M36.362 18.6548L35.6416 19.9328L25.0438 22.8403L21.3781 20.6733L33.9444 17.2257L36.362 18.6548Z" fill="#FFD9D9"/>
<path d="M49.1315 33.028C49.262 32.6273 48.8308 32.2701 48.3193 32.3532C46.9653 32.5731 44.5813 32.9417 42.5081 33.1663C40.2371 33.4123 37.7042 33.5542 36.5093 33.6127C36.1218 33.6316 35.81 33.8891 35.8109 34.1952C35.8129 34.8439 35.8319 35.9327 35.9262 36.7217C36.0249 37.5479 36.2817 38.6765 36.4308 39.2946C36.494 39.5565 36.7869 39.7348 37.1272 39.7184C38.2699 39.6636 40.893 39.5206 43.2373 39.2666C45.3718 39.0354 47.8357 38.6516 49.1659 38.4345C49.6452 38.3562 49.9005 37.9315 49.669 37.602L48.4177 35.8206C48.3318 35.6983 48.3092 35.5528 48.3546 35.4134L49.1315 33.028Z" fill="#D05C86"/>
<path d="M49.3678 32.1899C49.5001 31.7892 49.0685 31.4296 48.5558 31.5118C47.1849 31.7315 44.7607 32.1014 42.6531 32.3266C40.3434 32.5734 37.7666 32.7155 36.5599 32.7736C36.173 32.7922 35.8622 33.0485 35.8631 33.354C35.8651 34.0024 35.8842 35.0924 35.9799 35.8821C36.08 36.7083 36.3405 37.8372 36.4916 38.4551C36.5557 38.717 36.8489 38.8952 37.1892 38.8792C38.3433 38.8247 41.0099 38.6815 43.3924 38.427C45.5604 38.1954 48.0636 37.8105 49.4105 37.5936C49.8918 37.5161 50.1464 37.0896 49.9114 36.7596L48.6461 34.9831C48.5581 34.8595 48.535 34.7121 48.5815 34.5712L49.3678 32.1899Z" fill="#F6CCD9"/>
<path d="M49.1191 32.5415C49.2208 32.2405 48.8971 31.9691 48.5117 32.0312C47.2326 32.2371 44.6911 32.6291 42.5003 32.8632C40.136 33.1158 37.4856 33.2586 36.3883 33.3111C36.0989 33.3249 35.8668 33.516 35.8663 33.7446C35.865 34.3453 35.8773 35.4806 35.9752 36.2883C36.0766 37.1258 36.3521 38.2869 36.4933 38.8524C36.5422 39.0486 36.7618 39.1815 37.0169 39.1694C38.0598 39.1204 40.7852 38.9768 43.2097 38.7178C45.4508 38.4783 48.0588 38.0736 49.3071 37.8719C49.6697 37.8133 49.8594 37.4911 49.6802 37.2434L48.3206 35.3642C48.2527 35.2704 48.235 35.1578 48.2713 35.0505L49.1191 32.5415Z" fill="#FA88BF"/>
<path d="M3.59515 33.028C3.46468 32.6273 3.89579 32.2701 4.40733 32.3532C5.76138 32.5731 8.14532 32.9417 10.2185 33.1663C12.4896 33.4123 15.0224 33.5542 16.2173 33.6127C16.6048 33.6316 16.9166 33.8891 16.9157 34.1952C16.9137 34.8439 16.8948 35.9327 16.8005 36.7217C16.7017 37.5479 16.4449 38.6765 16.2958 39.2946C16.2326 39.5565 15.9397 39.7348 15.5995 39.7184C14.4568 39.6636 11.8336 39.5206 9.48937 39.2666C7.35487 39.0354 4.89095 38.6516 3.56078 38.4345C3.0814 38.3562 2.82615 37.9315 3.0576 37.602L4.30896 35.8206C4.39486 35.6983 4.41739 35.5528 4.37201 35.4134L3.59515 33.028Z" fill="#D05C86"/>
<path d="M3.35887 32.1899C3.22655 31.7892 3.65813 31.4296 4.17081 31.5118C5.5417 31.7315 7.96597 32.1014 10.0735 32.3266C12.3832 32.5734 14.96 32.7155 16.1668 32.7736C16.5537 32.7922 16.8645 33.0485 16.8635 33.354C16.8615 34.0024 16.8424 35.0924 16.7467 35.8821C16.6466 36.7083 16.3862 37.8372 16.235 38.4551C16.1709 38.717 15.8777 38.8952 15.5374 38.8792C14.3833 38.8247 11.7167 38.6815 9.33426 38.427C7.16623 38.1954 4.663 37.8105 3.31614 37.5936C2.83485 37.5161 2.58027 37.0896 2.81526 36.7596L4.08052 34.9831C4.1685 34.8595 4.19163 34.7121 4.14512 34.5712L3.35887 32.1899Z" fill="#F6CCD9"/>
<path d="M3.60756 32.5415C3.50588 32.2405 3.8295 31.9691 4.21496 32.0312C5.49399 32.2371 8.03549 32.6291 10.2263 32.8632C12.5906 33.1158 15.2411 33.2586 16.3383 33.3111C16.6278 33.3249 16.8598 33.516 16.8603 33.7446C16.8616 34.3453 16.8494 35.4806 16.7515 36.2883C16.65 37.1258 16.3746 38.2869 16.2334 38.8524C16.1844 39.0486 15.9648 39.1815 15.7097 39.1694C14.6669 39.1204 11.9415 38.9768 9.51691 38.7178C7.27583 38.4783 4.66784 38.0736 3.41957 37.8719C3.05689 37.8133 2.86721 37.4911 3.04641 37.2434L4.40603 35.3642C4.47391 35.2704 4.49161 35.1578 4.45536 35.0505L3.60756 32.5415Z" fill="#FA88BF"/>
<path d="M10.8886 34.963C10.8886 34.1232 11.8241 33.4704 12.8909 33.5601C15.9153 33.8143 21.7378 34.253 25.9069 34.253C30.0761 34.253 35.8986 33.8143 38.923 33.5601C39.9898 33.4704 40.9252 34.1232 40.9252 34.963V39.3906C40.9252 40.0982 40.2523 40.6936 39.3536 40.7706C36.4828 41.0166 30.2838 41.5 25.9069 41.5C21.53 41.5 15.331 41.0166 12.4602 40.7706C11.5615 40.6936 10.8886 40.0982 10.8886 39.3906V34.963Z" fill="#D05C86"/>
<path d="M11.5016 34.9711C11.5016 34.1285 12.4426 33.4746 13.5125 33.568C16.4378 33.8233 21.9491 34.253 25.9069 34.253C29.8648 34.253 35.376 33.8233 38.3013 33.568C39.3713 33.4746 40.3123 34.1285 40.3123 34.9711V39.397C40.3123 40.1019 39.6457 40.6957 38.7509 40.7754C35.9742 41.0228 30.078 41.5 25.9069 41.5C21.7359 41.5 15.8397 41.0228 13.063 40.7754C12.1682 40.6957 11.5016 40.1019 11.5016 39.397V34.9711Z" fill="#F6CCD9"/>
<path d="M11.5016 35.2353C11.5016 34.5653 12.2448 34.0437 13.0961 34.1139C15.8863 34.3439 21.7524 34.7828 25.9069 34.7828C30.0615 34.7828 35.9276 34.3439 38.7178 34.1139C39.5691 34.0437 40.3123 34.5653 40.3123 35.2353V39.6981C40.3123 40.2659 39.7733 40.7429 39.0519 40.8033C36.4221 41.0236 30.2356 41.5 25.9069 41.5C21.5783 41.5 15.3917 41.0236 12.7619 40.8033C12.0406 40.7429 11.5016 40.2659 11.5016 39.6981V35.2353Z" fill="#FA88BF"/>
<path fill-rule="evenodd" clip-rule="evenodd" d="M10.3276 2.8581C10.7277 2.96695 11.0523 3.3626 10.9747 3.95587L10.1845 9.99321C10.1324 10.3901 10.2874 10.7721 10.5823 10.9751L14.8928 13.9411C15.2656 14.1977 15.3672 14.6552 15.2645 15.0597L15.2615 15.0709L7.65112 13.0003L10.3276 2.8581Z" fill="#FFEF9B"/>
<path fill-rule="evenodd" clip-rule="evenodd" d="M4.97466 23.1425C5.37475 23.2514 5.85072 23.0736 6.07569 22.5204L8.3643 16.8907C8.51465 16.5205 8.83698 16.2684 9.19235 16.2423L14.3859 15.8621C14.8351 15.8292 15.1484 15.4845 15.2586 15.082L15.2615 15.0709L7.65112 13.0003L4.97466 23.1425Z" fill="#EFDF4D"/>
<path fill-rule="evenodd" clip-rule="evenodd" d="M4.97466 23.1425C4.57456 23.0337 4.24993 22.638 4.3275 22.0448L5.11773 16.0074C5.16981 15.6105 5.01483 15.2285 4.7199 15.0255L0.409451 12.0595C0.0366099 11.803 -0.0650121 11.3454 0.0377487 10.9409L0.0406889 10.9298L7.65112 13.0003L4.97466 23.1425Z" fill="#BFB238"/>
<path fill-rule="evenodd" clip-rule="evenodd" d="M10.3276 2.8581L7.65112 13.0003L0.0406889 10.9298C0.148146 10.5226 0.462875 10.1718 0.916384 10.1386L6.10989 9.75831C6.46526 9.73225 6.78758 9.48011 6.93793 9.10993L9.22655 3.48025C9.45152 2.92708 9.92749 2.74925 10.3276 2.8581Z" fill="#EFDF4D"/>
</svg>
