<svg width="20" height="32" viewBox="0 0 20 32" fill="none" xmlns="http://www.w3.org/2000/svg">
<path fill-rule="evenodd" clip-rule="evenodd" d="M7.35 25.65C7.35 25.291 7.64102 25 8 25H12C12.359 25 12.65 25.291 12.65 25.65C12.65 26.009 12.359 26.3 12 26.3H8C7.64102 26.3 7.35 26.009 7.35 25.65Z" fill="#212123"/>
<path fill-rule="evenodd" clip-rule="evenodd" d="M6.3924 8.65H6.34998C6.34998 6.63416 7.98414 5 9.99998 5C12.0158 5 13.65 6.63416 13.65 8.65H13.6076C15.6404 9.8749 17 12.1037 17 14.65V22.1954C17 22.9988 16.3488 23.65 15.5455 23.65H4.45455C3.65122 23.65 3 22.9988 3 22.1954V14.65C3 12.1037 4.35958 9.8749 6.3924 8.65ZM7.73403 8.02489C8.00775 7.03046 8.91856 6.3 9.99998 6.3C11.0814 6.3 11.9922 7.03045 12.2659 8.02487C11.5552 7.78186 10.793 7.64999 10 7.64999C9.20696 7.64999 8.44473 7.78187 7.73403 8.02489ZM15.7 14.65V22.1954C15.7 22.2808 15.6308 22.35 15.5455 22.35H4.45455C4.36919 22.35 4.3 22.2808 4.3 22.1954V14.65C4.3 11.502 6.85198 8.94999 10 8.94999C13.148 8.94999 15.7 11.502 15.7 14.65Z" fill="#212123"/>
</svg>
