<svg width="52" height="41" viewBox="0 0 52 41" fill="none" xmlns="http://www.w3.org/2000/svg">
<path d="M43.9401 9.17028C44.8728 9.69603 45.447 10.6716 45.4448 11.7268L45.4265 20.5L45.4448 29.2732C45.447 30.3284 44.8728 31.304 43.9401 31.8297L36.1856 36.2007L28.4495 40.6029C27.519 41.1324 26.3706 41.1324 25.4401 40.6029L17.704 36.2007L9.94952 31.8297C9.0168 31.304 8.44262 30.3284 8.44483 29.2732L8.46317 20.5L8.44483 11.7268C8.44262 10.6716 9.0168 9.69603 9.94952 9.17028L17.704 4.79928L25.4401 0.397125C26.3706 -0.132375 27.519 -0.132375 28.4495 0.397125L36.1856 4.79928L43.9401 9.17028Z" fill="#F7CCD9"/>
<path d="M40.5665 11.0088C41.4993 11.5345 42.0734 12.5101 42.0712 13.5653L42.0567 20.5L42.0712 27.4346C42.0734 28.4899 41.4993 29.4654 40.5665 29.9912L34.4371 33.4462L28.3222 36.9258C27.3916 37.4553 26.2433 37.4553 25.3128 36.9258L19.1978 33.4462L13.0684 29.9912C12.1357 29.4654 11.5615 28.4898 11.5637 27.4346L11.5782 20.5L11.5637 13.5653C11.5615 12.5101 12.1357 11.5345 13.0684 11.0088L19.1978 7.55376L25.3128 4.07413C26.2433 3.54462 27.3916 3.54463 28.3222 4.07413L34.4371 7.55376L40.5665 11.0088Z" fill="#F7CCD9"/>
<path fill-rule="evenodd" clip-rule="evenodd" d="M41.6819 20.4992L41.6964 13.5646C41.6983 12.6412 41.1959 11.7876 40.3798 11.3276L34.249 7.87182L28.1341 4.39219C27.3199 3.92888 26.3151 3.92888 25.5009 4.39219L19.3846 7.87258L13.2552 11.3276C12.439 11.7876 11.9366 12.6412 11.9386 13.5646L11.9531 20.5007L11.9386 27.4354C11.9366 28.3587 12.439 29.2123 13.2552 29.6723L19.3859 33.1281L25.5009 36.6077C26.3151 37.0711 27.3199 37.0711 28.1341 36.6077L34.2503 33.1273L40.3798 29.6724C41.1959 29.2123 41.6983 28.3587 41.6964 27.4354L41.6819 20.4992ZM42.0712 13.5653C42.0734 12.5101 41.4993 11.5345 40.5665 11.0088L34.4371 7.55376L28.3222 4.07413C27.3916 3.54463 26.2433 3.54462 25.3128 4.07413L19.1978 7.55376L13.0684 11.0088C12.1357 11.5345 11.5615 12.5101 11.5637 13.5653L11.5782 20.5L11.5637 27.4346C11.5615 28.4898 12.1357 29.4654 13.0684 29.9912L19.1978 33.4462L25.3128 36.9258C26.2433 37.4553 27.3916 37.4553 28.3222 36.9258L34.4371 33.4462L40.5665 29.9912C41.4993 29.4654 42.0734 28.4899 42.0712 27.4346L42.0567 20.5L42.0712 13.5653Z" fill="#B5AC5B"/>
<path d="M42.0215 9.3333C42.9038 9.8334 43.4469 10.7614 43.4448 11.7652L43.4275 20.1103L43.4448 28.4555C43.4469 29.4593 42.9038 30.3873 42.0215 30.8874L34.6861 35.0452L27.3682 39.2326C26.488 39.7363 25.4017 39.7363 24.5215 39.2326L16.4448 36.1104L10.4448 32.1104C8.44483 31.1104 8.44482 30.1104 8.44483 28.4555L8.46218 20.1104L8.44483 11.7652C8.44482 10.6103 9.06252 9.61042 9.94482 9.11031L16.9448 5.11031L24.5789 0.82602C25.4591 0.322349 26.5454 0.322349 27.4256 0.82602L34.6861 5.17552L42.0215 9.3333Z" fill="#D05C86"/>
<path d="M38.8302 11.0821C39.7125 11.5822 40.2557 12.5102 40.2536 13.514L40.2399 20.1103L40.2536 26.7067C40.2557 27.7105 39.7125 28.6384 38.8302 29.1385L33.0321 32.425L27.2477 35.7349C26.3675 36.2386 25.2812 36.2386 24.401 35.7349L18.6166 32.425L12.8185 29.1385C11.9362 28.6384 11.393 27.7105 11.3951 26.7067L11.4088 20.1103L11.3951 13.514C11.393 12.5102 11.9362 11.5822 12.8185 11.0821L18.6166 7.79563L24.401 4.48574C25.2812 3.98207 26.3675 3.98207 27.2477 4.48574L33.0321 7.79563L38.8302 11.0821Z" fill="#D05C86"/>
<path fill-rule="evenodd" clip-rule="evenodd" d="M39.8853 20.1096L39.899 13.5132C39.9008 12.6349 39.4256 11.823 38.6536 11.3854L32.8542 8.09818L27.0698 4.78829C26.2996 4.34757 25.3491 4.34757 24.5789 4.78829L18.7933 8.0989L12.9951 11.3854C12.2231 11.823 11.7479 12.6349 11.7497 13.5132L11.7634 20.111L11.7497 26.7074C11.7479 27.5857 12.2231 28.3977 12.9951 28.8353L18.7945 32.1224L24.5789 35.4324C25.3491 35.8731 26.2996 35.8731 27.0698 35.4324L32.8554 32.1217L38.6536 28.8353C39.4256 28.3977 39.9008 27.5857 39.899 26.7074L39.8853 20.1096ZM40.2536 13.514C40.2557 12.5102 39.7125 11.5822 38.8302 11.0821L33.0321 7.79563L27.2477 4.48574C26.3675 3.98207 25.2812 3.98207 24.401 4.48574L18.6166 7.79563L12.8185 11.0821C11.9362 11.5822 11.393 12.5102 11.3951 13.514L11.4088 20.1103L11.3951 26.7067C11.393 27.7105 11.9362 28.6384 12.8185 29.1385L18.6166 32.425L24.401 35.7349C25.2812 36.2386 26.3675 36.2386 27.2477 35.7349L33.0321 32.425L38.8302 29.1385C39.7125 28.6384 40.2557 27.7105 40.2536 26.7067L40.2399 20.1103L40.2536 13.514Z" fill="#B5AC5B"/>
<path d="M43.0215 9.94661C43.9038 10.4595 44.4469 11.4113 44.4448 12.4408L44.4275 21L44.4448 29.5592C44.4469 30.5887 43.9038 31.5405 43.0215 32.0534L35.6861 36.3178L28.3682 40.6126C27.488 41.1291 26.4017 41.1291 25.5215 40.6126L18.2035 36.3178L10.8682 32.0534C9.98588 31.5405 9.44274 30.5887 9.44483 29.5592L9.46218 21L9.44483 12.4408C9.44274 11.4113 9.98588 10.4595 10.8682 9.94661L18.2035 5.68223L25.5215 1.38744C26.4017 0.870854 27.488 0.870854 28.3682 1.38744L35.6861 5.68223L43.0215 9.94661Z" fill="#FA88BF"/>
<path d="M39.8302 11.7403C40.7125 12.2532 41.2557 13.205 41.2536 14.2345L41.2399 21L41.2536 27.7655C41.2557 28.795 40.7125 29.7467 39.8302 30.2597L34.0321 33.6304L28.2477 37.0252C27.3675 37.5418 26.2812 37.5418 25.401 37.0252L19.6166 33.6304L13.8185 30.2597C12.9362 29.7467 12.393 28.795 12.3951 27.7655L12.4088 21L12.3951 14.2345C12.393 13.205 12.9362 12.2532 13.8185 11.7403L19.6166 8.36952L25.401 4.97476C26.2812 4.45817 27.3675 4.45817 28.2477 4.97476L34.0321 8.36952L39.8302 11.7403Z" fill="#984E69"/>
<path fill-rule="evenodd" clip-rule="evenodd" d="M40.8853 20.9992L40.899 14.2337C40.9008 13.3329 40.4256 12.5001 39.6536 12.0513L33.8542 8.67983L28.0698 5.28506C27.2996 4.83305 26.3491 4.83305 25.5789 5.28506L19.7933 8.68056L13.9951 12.0513C13.2231 12.5001 12.7479 13.3329 12.7497 14.2337L12.7634 21.0007L12.7497 27.7662C12.7479 28.667 13.2231 29.4998 13.9951 29.9486L19.7945 33.3201L25.5789 36.7149C26.3491 37.1669 27.2996 37.1669 28.0698 36.7149L33.8554 33.3194L39.6536 29.9486C40.4256 29.4998 40.9008 28.667 40.899 27.7662L40.8853 20.9992ZM41.2536 14.2345C41.2557 13.205 40.7125 12.2532 39.8302 11.7403L34.0321 8.36952L28.2477 4.97476C27.3675 4.45817 26.2812 4.45817 25.401 4.97476L19.6166 8.36952L13.8185 11.7403C12.9362 12.2532 12.393 13.205 12.3951 14.2345L12.4088 21L12.3951 27.7655C12.393 28.795 12.9362 29.7467 13.8185 30.2597L19.6166 33.6304L25.401 37.0252C26.2812 37.5418 27.3675 37.5418 28.2477 37.0252L34.0321 33.6304L39.8302 30.2597C40.7125 29.7467 41.2557 28.795 41.2536 27.7655L41.2399 21L41.2536 14.2345Z" fill="#9E4158"/>
<path d="M28.6421 22.854L24.5638 29.9771L21.2178 28.0291L25.2961 20.906" fill="#FEFEFE"/>
<path d="M26.7832 21.7718L22.7049 28.8949L21.2178 28.0291L25.2961 20.906" fill="#CFE0E0"/>
<path d="M24.9356 30.1936L20.846 27.8126L19.9875 29.3122L24.077 31.6932L24.9356 30.1936Z" fill="#FF3C5F"/>
<path d="M38.632 20.095L37.7275 18.2307L24.7828 10.6943L22.7295 10.8366L19.1976 17.0053L20.1021 18.8696L33.0468 26.4059L35.1002 26.2637L38.632 20.095Z" fill="#FF989E"/>
<path d="M37.5972 18.1548L24.8629 10.741L20.1926 18.8981L32.9269 26.3119L37.5972 18.1548Z" fill="#FF3C5F"/>
<path d="M33.5476 15.7972L20.7881 19.2448L20.1926 18.8981L20.6873 18.0345L32.0953 14.9517L33.5476 15.7972Z" fill="#FFD9D9"/>
<path d="M37.5972 18.1548L36.8657 19.4328L26.105 22.3403L22.3829 20.1733L35.1424 16.7257L37.5972 18.1548Z" fill="#FFD9D9"/>
<path d="M50.5629 32.528C50.6954 32.1273 50.2577 31.7701 49.7383 31.8532C48.3634 32.0731 45.9428 32.4417 43.8378 32.6663C41.5318 32.9123 38.96 33.0542 37.7467 33.1127C37.3533 33.1316 37.0367 33.3891 37.0377 33.6952C37.0397 34.3439 37.0589 35.4327 37.1546 36.2217C37.2549 37.0479 37.5156 38.1765 37.6671 38.7946C37.7312 39.0565 38.0286 39.2348 38.3741 39.2184C39.5344 39.1636 42.1978 39.0206 44.5781 38.7666C46.7454 38.5354 49.2472 38.1516 50.5978 37.9345C51.0846 37.8562 51.3438 37.4315 51.1088 37.102L49.8382 35.3206C49.7509 35.1983 49.7281 35.0528 49.7741 34.9134L50.5629 32.528Z" fill="#D05C86"/>
<path d="M50.8029 31.6899C50.9372 31.2892 50.499 30.9296 49.9784 31.0118C48.5865 31.2315 46.1249 31.6014 43.985 31.8266C41.6398 32.0734 39.0234 32.2155 37.7981 32.2736C37.4052 32.2922 37.0897 32.5485 37.0906 32.854C37.0926 33.5024 37.1121 34.5924 37.2092 35.3821C37.3109 36.2083 37.5753 37.3372 37.7288 37.9551C37.7939 38.217 38.0916 38.3952 38.4371 38.3792C39.6089 38.3247 42.3165 38.1815 44.7356 37.927C46.937 37.6954 49.4787 37.3105 50.8462 37.0936C51.3349 37.0161 51.5934 36.5896 51.3548 36.2596L50.0701 34.4831C49.9808 34.3595 49.9573 34.2121 50.0045 34.0712L50.8029 31.6899Z" fill="#F6CCD9"/>
<path d="M50.5503 32.0415C50.6536 31.7405 50.325 31.4691 49.9336 31.5312C48.6349 31.7371 46.0543 32.1291 43.8298 32.3632C41.4292 32.6158 38.738 32.7586 37.6239 32.8111C37.33 32.8249 37.0944 33.016 37.0939 33.2446C37.0926 33.8453 37.105 34.9806 37.2044 35.7883C37.3074 36.6258 37.5871 37.7869 37.7305 38.3524C37.7802 38.5486 38.0031 38.6815 38.2622 38.6694C39.321 38.6204 42.0883 38.4768 44.5502 38.2178C46.8257 37.9783 49.4738 37.5736 50.7412 37.3719C51.1095 37.3133 51.3021 36.9911 51.1201 36.7434L49.7396 34.8642C49.6707 34.7704 49.6527 34.6578 49.6895 34.5505L50.5503 32.0415Z" fill="#FA88BF"/>
<path d="M4.32668 32.528C4.1942 32.1273 4.63194 31.7701 5.15134 31.8532C6.52621 32.0731 8.94679 32.4417 11.0518 32.6663C13.3578 32.9123 15.9296 33.0542 17.1429 33.1127C17.5363 33.1316 17.8529 33.3891 17.852 33.6952C17.85 34.3439 17.8307 35.4327 17.735 36.2217C17.6347 37.0479 17.374 38.1765 17.2226 38.7946C17.1584 39.0565 16.861 39.2348 16.5155 39.2184C15.3553 39.1636 12.6918 39.0206 10.3115 38.7666C8.14419 38.5354 5.64239 38.1516 4.29178 37.9345C3.80503 37.8562 3.54586 37.4315 3.78087 37.102L5.05146 35.3206C5.13868 35.1983 5.16156 35.0528 5.11548 34.9134L4.32668 32.528Z" fill="#D05C86"/>
<path d="M4.08676 31.6899C3.95241 31.2892 4.39062 30.9296 4.91118 31.0118C6.30314 31.2315 8.76468 31.6014 10.9046 31.8266C13.2498 32.0734 15.8662 32.2155 17.0915 32.2736C17.4844 32.2922 17.7999 32.5485 17.799 32.854C17.797 33.5024 17.7776 34.5924 17.6804 35.3821C17.5787 36.2083 17.3143 37.3372 17.1608 37.9551C17.0958 38.217 16.798 38.3952 16.4525 38.3792C15.2807 38.3247 12.5731 38.1815 10.154 37.927C7.95265 37.6954 5.41094 37.3105 4.04338 37.0936C3.5547 37.0161 3.2962 36.5896 3.53481 36.2596L4.81951 34.4831C4.90884 34.3595 4.93233 34.2121 4.8851 34.0712L4.08676 31.6899Z" fill="#F6CCD9"/>
<path d="M4.33928 32.0415C4.23603 31.7405 4.56463 31.4691 4.95602 31.5312C6.25471 31.7371 8.83527 32.1291 11.0598 32.3632C13.4604 32.6158 16.1516 32.7586 17.2657 32.8111C17.5596 32.8249 17.7952 33.016 17.7957 33.2446C17.7971 33.8453 17.7846 34.9806 17.6852 35.7883C17.5822 36.6258 17.3025 37.7869 17.1592 38.3524C17.1094 38.5486 16.8865 38.6815 16.6274 38.6694C15.5686 38.6204 12.8013 38.4768 10.3395 38.2178C8.06394 37.9783 5.41585 37.5736 4.1484 37.3719C3.78014 37.3133 3.58755 36.9911 3.76951 36.7434L5.15002 34.8642C5.21894 34.7704 5.23692 34.6578 5.20012 34.5505L4.33928 32.0415Z" fill="#FA88BF"/>
<path d="M11.7323 34.463C11.7323 33.6232 12.6821 32.9704 13.7653 33.0601C16.8362 33.3143 22.7482 33.753 26.9814 33.753C31.2147 33.753 37.1266 33.3143 40.1975 33.0601C41.2807 32.9704 42.2306 33.6232 42.2306 34.463V38.8906C42.2306 39.5982 41.5473 40.1936 40.6348 40.2706C37.7199 40.5166 31.4256 41 26.9814 41C22.5372 41 16.243 40.5166 13.328 40.2706C12.4155 40.1936 11.7323 39.5982 11.7323 38.8906V34.463Z" fill="#D05C86"/>
<path d="M12.3547 34.4711C12.3547 33.6285 13.3101 32.9746 14.3965 33.068C17.3668 33.3233 22.9627 33.753 26.9814 33.753C31.0001 33.753 36.596 33.3233 39.5663 33.068C40.6527 32.9746 41.6082 33.6285 41.6082 34.4711V38.897C41.6082 39.6019 40.9313 40.1957 40.0228 40.2754C37.2034 40.5228 31.2166 41 26.9814 41C22.7463 41 16.7594 40.5228 13.94 40.2754C13.0315 40.1957 12.3547 39.6019 12.3547 38.897V34.4711Z" fill="#F6CCD9"/>
<path d="M12.3547 34.7353C12.3547 34.0653 13.1092 33.5437 13.9736 33.6139C16.8067 33.8439 22.763 34.2828 26.9814 34.2828C31.1998 34.2828 37.1561 33.8439 39.9892 33.6139C40.8536 33.5437 41.6082 34.0653 41.6082 34.7353V39.1981C41.6082 39.7659 41.0609 40.2429 40.3285 40.3033C37.6582 40.5236 31.3766 41 26.9814 41C22.5863 41 16.3046 40.5236 13.6343 40.3033C12.9019 40.2429 12.3547 39.7659 12.3547 39.1981V34.7353Z" fill="#FA88BF"/>
<path fill-rule="evenodd" clip-rule="evenodd" d="M11.1626 2.3581C11.5688 2.46695 11.8985 2.8626 11.8197 3.45587L11.0173 9.49321C10.9644 9.89013 11.1218 10.2721 11.4213 10.4751L15.798 13.4411C16.1765 13.6977 16.2797 14.1552 16.1754 14.5597L16.1724 14.5709L8.44499 12.5003L11.1626 2.3581Z" fill="#FFEF9B"/>
<path fill-rule="evenodd" clip-rule="evenodd" d="M5.72739 22.6425C6.13363 22.7514 6.61692 22.5736 6.84534 22.0204L9.16914 16.3907C9.3218 16.0205 9.64908 15.7684 10.0099 15.7423L15.2832 15.3621C15.7394 15.3292 16.0575 14.9845 16.1694 14.582L16.1724 14.5709L8.44499 12.5003L5.72739 22.6425Z" fill="#EFDF4D"/>
<path fill-rule="evenodd" clip-rule="evenodd" d="M5.72739 22.6425C5.32115 22.5337 4.99153 22.138 5.07029 21.5448L5.87266 15.5074C5.92555 15.1105 5.76819 14.7285 5.46872 14.5255L1.09201 11.5595C0.713442 11.303 0.610258 10.8454 0.714598 10.4409L0.717584 10.4298L8.44499 12.5003L5.72739 22.6425Z" fill="#BFB238"/>
<path fill-rule="evenodd" clip-rule="evenodd" d="M11.1626 2.3581L8.44499 12.5003L0.717584 10.4298C0.826693 10.0226 1.14626 9.67176 1.60674 9.63857L6.88007 9.25831C7.2409 9.23225 7.56818 8.98011 7.72084 8.60993L10.0446 2.98025C10.2731 2.42708 10.7563 2.24925 11.1626 2.3581Z" fill="#EFDF4D"/>
</svg>
