<svg width="50" height="41" viewBox="0 0 50 41" fill="none" xmlns="http://www.w3.org/2000/svg">
<path d="M40.5766 9.44661C41.4589 9.95954 42.0021 10.9113 42 11.9408L41.9826 20.5L42 29.0592C42.0021 30.0887 41.4589 31.0405 40.5766 31.5534L33.2413 35.8178L25.9234 40.1126C25.0431 40.6291 23.9569 40.6291 23.0766 40.1126L15.7587 35.8178L8.42337 31.5534C7.54106 31.0405 6.99792 30.0887 7.00001 29.0592L7.01735 20.5L7.00001 11.9408C6.99792 10.9113 7.54106 9.95954 8.42337 9.44661L15.7587 5.18223L23.0766 0.887439C23.9569 0.370853 25.0431 0.370854 25.9234 0.887439L33.2413 5.18223L40.5766 9.44661Z" fill="#DBBEA7"/>
<path d="M37.3854 11.2403C38.2677 11.7532 38.8108 12.705 38.8088 13.7345L38.795 20.5L38.8088 27.2655C38.8108 28.295 38.2677 29.2467 37.3854 29.7597L31.5873 33.1304L25.8029 36.5252C24.9227 37.0418 23.8364 37.0418 22.9562 36.5252L17.1718 33.1304L11.3737 29.7597C10.4914 29.2467 9.94822 28.295 9.9503 27.2655L9.96402 20.5L9.9503 13.7345C9.94822 12.705 10.4914 11.7532 11.3737 11.2403L17.1718 7.86952L22.9562 4.47476C23.8364 3.95817 24.9227 3.95817 25.8029 4.47476L31.5873 7.86952L37.3854 11.2403Z" fill="#8C7A6B"/>
<path fill-rule="evenodd" clip-rule="evenodd" d="M38.4405 20.4992L38.4542 13.7337C38.456 12.8329 37.9808 12.0001 37.2087 11.5513L31.4094 8.17983L25.625 4.78506C24.8548 4.33305 23.9043 4.33305 23.1341 4.78506L17.3484 8.18057L11.5503 11.5513C10.7783 12.0001 10.3031 12.8329 10.3049 13.7337L10.3186 20.5007L10.3049 27.2662C10.3031 28.167 10.7783 28.9998 11.5503 29.4486L17.3497 32.8201L23.1341 36.2149C23.9043 36.6669 24.8548 36.6669 25.625 36.2149L31.4106 32.8194L37.2087 29.4486C37.9808 28.9998 38.456 28.167 38.4542 27.2662L38.4405 20.4992ZM38.8088 13.7345C38.8108 12.705 38.2677 11.7532 37.3854 11.2403L31.5873 7.86952L25.8029 4.47476C24.9227 3.95817 23.8364 3.95817 22.9562 4.47476L17.1718 7.86952L11.3737 11.2403C10.4914 11.7532 9.94822 12.705 9.9503 13.7345L9.96402 20.5L9.9503 27.2655C9.94822 28.295 10.4914 29.2467 11.3737 29.7597L17.1718 33.1304L22.9562 36.5252C23.8364 37.0418 24.9227 37.0418 25.8029 36.5252L31.5873 33.1304L37.3854 29.7597C38.2677 29.2467 38.8108 28.295 38.8088 27.2655L38.795 20.5L38.8088 13.7345Z" fill="#9C8776"/>
<path d="M26.368 21.6254V29.8505H22.4719V21.6254" fill="#F2EAE3"/>
<path d="M24.2035 21.6254V29.8505H22.4719V21.6254" fill="#DBBEA7"/>
<path d="M26.8009 29.8505H22.039V31.5821H26.8009V29.8505Z" fill="#BFA691"/>
<path d="M23.7706 29.8505H22.039V31.5821H23.7706V29.8505Z" fill="#A6988D"/>
<path d="M33.7126 13.6428L31.9906 12.4844H16.9178L15.1958 13.6428V20.7659L16.9178 21.9243H31.9906L33.7126 20.7659V13.6428Z" fill="#DBBEA7"/>
<path d="M31.8388 12.4844H17.0112V21.9034H31.8388V12.4844Z" fill="#BFA691"/>
<path d="M27.1236 12.4844L17.7046 21.9034H17.0112L17.0114 20.9061L25.4325 12.4844H27.1236Z" fill="#F2EAE3"/>
<path d="M31.8388 12.4844L31.839 13.9599L23.8955 21.9034H19.5616L28.9806 12.4844H31.8388Z" fill="#F2EAE3"/>
<path d="M48.1181 32.0124C48.2506 31.6117 47.8129 31.2545 47.2935 31.3376C45.9186 31.5575 43.498 31.9261 41.393 32.1506C39.087 32.3966 36.5152 32.5386 35.3019 32.597C34.9085 32.616 34.5919 32.8735 34.5928 33.1796C34.5949 33.8283 34.6141 34.9171 34.7098 35.7061C34.8101 36.5322 35.0708 37.6609 35.2222 38.2789C35.2864 38.5409 35.5838 38.7191 35.9293 38.7028C37.0896 38.648 39.753 38.5049 42.1333 38.251C44.3006 38.0198 46.8024 37.6359 48.153 37.4189C48.6398 37.3406 48.8989 36.9158 48.6639 36.5864L47.3933 34.805C47.3061 34.6827 47.2832 34.5371 47.3293 34.3978L48.1181 32.0124Z" fill="#A89280"/>
<path d="M48.358 31.1743C48.4924 30.7736 48.0542 30.414 47.5336 30.4962C46.1417 30.7159 43.6801 31.0858 41.5402 31.311C39.195 31.5578 36.5786 31.6998 35.3533 31.7579C34.9604 31.7766 34.6449 32.0329 34.6458 32.3383C34.6478 32.9868 34.6673 34.0768 34.7644 34.8665C34.8661 35.6927 35.1305 36.8215 35.284 37.4395C35.349 37.7014 35.6468 37.8796 35.9923 37.8636C37.1641 37.8091 39.8717 37.6659 42.2908 37.4114C44.4922 37.1797 47.0339 36.7949 48.4014 36.578C48.8901 36.5005 49.1486 36.0739 48.91 35.744L47.6253 33.9674C47.536 33.8439 47.5125 33.6964 47.5597 33.5556L48.358 31.1743Z" fill="#F2EAE3"/>
<path d="M48.1055 31.5258C48.2088 31.2249 47.8802 30.9535 47.4888 31.0156C46.1901 31.2215 43.6095 31.6135 41.385 31.8476C38.9844 32.1002 36.2932 32.243 35.1791 32.2954C34.8852 32.3093 34.6496 32.5003 34.6491 32.7289C34.6478 33.3297 34.6602 34.465 34.7596 35.2727C34.8626 36.1102 35.1423 37.2713 35.2856 37.8368C35.3354 38.033 35.5583 38.1658 35.8174 38.1538C36.8762 38.1047 39.6435 37.9612 42.1053 37.7021C44.3809 37.4627 47.029 37.0579 48.2964 36.8562C48.6647 36.7976 48.8573 36.4755 48.6753 36.2278L47.2948 34.3486C47.2259 34.2547 47.2079 34.1422 47.2447 34.0349L48.1055 31.5258Z" fill="#DBBEA7"/>
<path d="M1.88187 32.0124C1.74939 31.6117 2.18713 31.2545 2.70653 31.3376C4.0814 31.5575 6.50198 31.9261 8.60701 32.1506C10.913 32.3966 13.4848 32.5386 14.6981 32.597C15.0915 32.616 15.4081 32.8735 15.4072 33.1796C15.4051 33.8283 15.3859 34.9171 15.2902 35.7061C15.1899 36.5322 14.9292 37.6609 14.7778 38.2789C14.7136 38.5409 14.4162 38.7191 14.0707 38.7028C12.9104 38.648 10.247 38.5049 7.86669 38.251C5.69938 38.0198 3.19758 37.6359 1.84697 37.4189C1.36022 37.3406 1.10105 36.9158 1.33606 36.5864L2.60666 34.805C2.69387 34.6827 2.71675 34.5371 2.67067 34.3978L1.88187 32.0124Z" fill="#A89280"/>
<path d="M1.64196 31.1743C1.50761 30.7736 1.94582 30.414 2.46638 30.4962C3.85834 30.7159 6.31987 31.0858 8.45978 31.311C10.805 31.5578 13.4214 31.6998 14.6467 31.7579C15.0396 31.7766 15.3551 32.0329 15.3542 32.3383C15.3522 32.9868 15.3327 34.0768 15.2356 34.8665C15.1339 35.6927 14.8695 36.8215 14.716 37.4395C14.651 37.7014 14.3532 37.8796 14.0077 37.8636C12.8359 37.8091 10.1283 37.6659 7.70919 37.4114C5.50784 37.1797 2.96613 36.7949 1.59857 36.578C1.10989 36.5005 0.851391 36.0739 1.09 35.744L2.3747 33.9674C2.46404 33.8439 2.48752 33.6964 2.44029 33.5556L1.64196 31.1743Z" fill="#F2EAE3"/>
<path d="M1.89447 31.5258C1.79122 31.2249 2.11983 30.9535 2.51121 31.0156C3.8099 31.2215 6.39047 31.6135 8.61499 31.8476C11.0156 32.1002 13.7068 32.243 14.8209 32.2954C15.1148 32.3093 15.3504 32.5003 15.3509 32.7289C15.3522 33.3297 15.3398 34.465 15.2404 35.2727C15.1374 36.1102 14.8577 37.2713 14.7144 37.8368C14.6646 38.033 14.4417 38.1658 14.1826 38.1538C13.1238 38.1047 10.3565 37.9612 7.89466 37.7021C5.61913 37.4627 2.97105 37.0579 1.70359 36.8562C1.33533 36.7976 1.14275 36.4755 1.3247 36.2278L2.70521 34.3486C2.77414 34.2547 2.79211 34.1422 2.75531 34.0349L1.89447 31.5258Z" fill="#DBBEA7"/>
<path d="M9.28745 33.9474C9.28745 33.1076 10.2373 32.4548 11.3205 32.5445C14.3914 32.7987 20.3033 33.2374 24.5366 33.2374C28.7699 33.2374 34.6818 32.7987 37.7527 32.5445C38.8359 32.4548 39.7858 33.1076 39.7858 33.9474V38.375C39.7858 39.0826 39.1025 39.6779 38.19 39.7549C35.2751 40.0009 28.9808 40.4844 24.5366 40.4844C20.0924 40.4844 13.7982 40.0009 10.8832 39.7549C9.97071 39.6779 9.28745 39.0826 9.28745 38.375V33.9474Z" fill="#A89280"/>
<path d="M9.90986 33.9555C9.90986 33.1129 10.8653 32.459 11.9517 32.5524C14.922 32.8077 20.5179 33.2374 24.5366 33.2374C28.5553 33.2374 34.1512 32.8077 37.1215 32.5524C38.2079 32.459 39.1633 33.1129 39.1633 33.9555V38.3813C39.1633 39.0863 38.4865 39.68 37.578 39.7598C34.7586 40.0072 28.7718 40.4844 24.5366 40.4844C20.3014 40.4844 14.3146 40.0072 11.4952 39.7598C10.5867 39.68 9.90986 39.0863 9.90986 38.3813V33.9555Z" fill="#F2EAE3"/>
<path d="M9.90986 34.2197C9.90986 33.5497 10.6644 33.028 11.5288 33.0982C14.3619 33.3283 20.3182 33.7671 24.5366 33.7671C28.755 33.7671 34.7113 33.3283 37.5444 33.0982C38.4088 33.028 39.1633 33.5497 39.1633 34.2197V38.6825C39.1633 39.2503 38.6161 39.7273 37.8837 39.7877C35.2134 40.008 28.9318 40.4844 24.5366 40.4844C20.1415 40.4844 13.8598 40.008 11.1895 39.7877C10.4571 39.7273 9.90986 39.2503 9.90986 38.6825V34.2197Z" fill="#DBBEA7"/>
</svg>
